<svg width="14" height="16" viewBox="0 0 14 16" fill="none" xmlns="http://www.w3.org/2000/svg">
<g clip-path="url(#clip0_771_4224)">
<path d="M7.14375 3H7V2.85625C7 1.83125 7.83125 1 8.85625 1H9V1.14375C9 2.16875 8.16875 3 7.14375 3ZM6.57188 4H7.14375C8.72188 4 10 2.72187 10 1.14375V0.571875C10 0.25625 9.74375 0 9.42813 0H8.85625C7.27812 0 6 1.27813 6 2.85625V3.42812C6 3.74375 6.25625 4 6.57188 4ZM1 9C1 7.94375 1.25 6.88438 1.7125 6.125C2.15625 5.39062 2.74375 5 3.5 5C4.15625 5 5.02188 5.2625 5.72188 5.53438C6.54063 5.85313 7.45937 5.85313 8.28125 5.53438C8.97812 5.2625 9.84375 5 10.5 5C11.2594 5 11.8438 5.39062 12.2875 6.125C12.75 6.88438 13 7.94375 13 9C13 10.7969 12.4375 12.3312 11.6375 13.4C10.825 14.4844 9.84375 15 9 15C8.5875 15 8 14.9156 7.58437 14.8438C7.2 14.775 6.80312 14.775 6.41875 14.8438C6.00312 14.9156 5.41563 15 5.00313 15C4.15938 15 3.17812 14.4844 2.36562 13.4C1.5625 12.3312 1 10.7969 1 9ZM5 16C5.50625 16 6.16875 15.9 6.5875 15.8281C6.85938 15.7812 7.1375 15.7812 7.40938 15.8281C7.83125 15.9031 8.49062 16 8.99687 16C11.4969 16 13.9969 13 13.9969 9C13.9969 6.61562 12.8813 4 10.4969 4C9.64375 4 8.63125 4.32188 7.9125 4.60313C7.325 4.83125 6.66563 4.83125 6.07812 4.60313C5.36562 4.32188 4.35313 4 3.5 4C1.11562 4 0 6.61562 0 9C0 13 2.5 16 5 16Z" fill="black"/>
</g>
<defs>
<clipPath id="clip0_771_4224">
<rect width="14" height="16" fill="white"/>
</clipPath>
</defs>
</svg>
