<svg width="16" height="16" viewBox="0 0 16 16" fill="none" xmlns="http://www.w3.org/2000/svg">
<g clip-path="url(#clip0_771_4219)">
<path d="M15 4.5C15 5.5875 14.5031 6.5625 13.7219 7.20625C13.025 7.78125 12.3875 8.60313 12.1875 9.63125C11.8938 11.1219 11.2188 12.5625 10.3906 13.3906C8.24375 15.5375 4.75937 15.5375 2.6125 13.3906C0.465625 11.2437 0.465625 7.75938 2.6125 5.6125C3.44062 4.78438 4.87812 4.10938 6.37187 3.81562C7.4 3.61562 8.225 2.97813 8.79688 2.28125C9.4375 1.49688 10.4125 1 11.5 1C13.4344 1 15 2.56562 15 4.5ZM13.1656 9.82187C13.3094 9.0875 13.7781 8.45 14.3562 7.975C15.3594 7.15312 16 5.9 16 4.5C16 2.01562 13.9844 0 11.5 0C10.1 0 8.84688 0.640625 8.02188 1.64375C7.54688 2.22187 6.90938 2.69062 6.175 2.83437C4.55313 3.15312 2.90937 3.89687 1.90312 4.90625C-0.634375 7.44375 -0.634375 11.5594 1.90312 14.1C4.44062 16.6406 8.55625 16.6375 11.0969 14.1C12.1062 13.0906 12.85 11.4469 13.1687 9.82812L13.1656 9.82187ZM5.50313 7.50313C6.69688 6.30938 8.25625 6.24062 9.00625 6.99062C9.75625 7.74062 9.6875 9.3 8.49375 10.4937C7.3 11.6875 5.74062 11.7563 4.99062 11.0063C4.24062 10.2563 4.30938 8.69688 5.50313 7.50313ZM9.71562 6.28438C8.42188 4.99063 6.2125 5.38438 4.79688 6.79688C3.38125 8.20938 2.99063 10.4219 4.28438 11.7156C5.57812 13.0094 7.7875 12.6156 9.20312 11.2031C10.6187 9.79062 11.0094 7.57812 9.71562 6.28438Z" fill="black"/>
</g>
<defs>
<clipPath id="clip0_771_4219">
<rect width="16" height="16" fill="white"/>
</clipPath>
</defs>
</svg>
