<svg width="18" height="16" viewBox="0 0 18 16" fill="none" xmlns="http://www.w3.org/2000/svg">
<g clip-path="url(#clip0_771_4215)">
<path d="M10.5 4.5C10.5 5.7875 10.2281 7.0125 9.74063 8.12187C9.49063 7.88437 9.20938 7.67812 8.9125 7.5125C9.29063 6.58437 9.5 5.56563 9.5 4.5C9.5 3.51875 9.325 2.58437 9.00313 1.71875C8.70625 0.921875 9.27188 0 10.1906 0C10.4969 0 10.8 0.1125 11.0344 0.325C12.8562 1.97187 14 4.35313 14 7C14 7.34375 13.9813 7.68125 13.9438 8.01562C13.5875 8.04688 13.2375 8.12813 12.9031 8.25C12.9688 7.84062 13 7.425 13 6.99687C13 4.64375 11.9844 2.52813 10.3656 1.0625C10.3188 1.01875 10.2563 0.996875 10.1906 0.996875C10.0875 0.996875 10.0188 1.04062 9.97188 1.10938C9.91875 1.19062 9.90938 1.28438 9.9375 1.36563C10.3031 2.34375 10.5 3.4 10.5 4.5ZM7.93437 9.25625C7.63125 9.09063 7.2875 9 6.93437 9C6.57187 9 6.21875 9.09375 5.90625 9.27188L4.75 9.93125C4.50938 10.0687 4.20625 9.98438 4.06875 9.74375C3.93125 9.50312 4.01562 9.2 4.25625 9.0625L5.4125 8.40312C5.87812 8.1375 6.40312 7.99687 6.9375 7.99687C7.75313 7.99687 8.53438 8.32188 9.1125 8.89688L10.6125 10.3969L13.0437 9.275C13.4406 9.09062 13.8719 8.99687 14.3094 8.99687C15.3844 8.99687 16.375 9.56562 16.9156 10.4937L17.9375 12.2437C18.0781 12.4812 17.9969 12.7875 17.7563 12.9281C17.5156 13.0688 17.2125 12.9875 17.0719 12.7469L16.05 10.9969C15.6875 10.3781 15.025 9.99375 14.3062 9.99375C14.0156 9.99375 13.725 10.0563 13.4594 10.1781L13.4156 10.2C12.1187 13.5938 8.84062 16 5 16H1.5C0.671875 16 0 15.3281 0 14.5V14C0 13.1719 0.671875 12.5 1.5 12.5C4.1375 12.5 6.475 11.225 7.93437 9.25625ZM12.0156 10.8531L10.7125 11.4563C10.5219 11.5437 10.2969 11.5031 10.15 11.3562L8.7 9.90625C7.05625 12.0875 4.44375 13.5 1.5 13.5C1.225 13.5 1 13.725 1 14V14.5C1 14.775 1.225 15 1.5 15H5C8.02188 15 10.6531 13.325 12.0125 10.8531H12.0156Z" fill="black"/>
</g>
<defs>
<clipPath id="clip0_771_4215">
<rect width="18" height="16" fill="white"/>
</clipPath>
</defs>
</svg>
