<svg width="30" height="30" viewBox="0 0 30 30" fill="none" xmlns="http://www.w3.org/2000/svg">
<mask id="mask0_1684_991" style="mask-type:luminance" maskUnits="userSpaceOnUse" x="2" y="2" width="26" height="26">
<path d="M2.3584 2.36138H27.6362V27.6392H2.3584V2.36138Z" fill="white"/>
</mask>
<g mask="url(#mask0_1684_991)">
<path d="M12.6111 11.378C8.82881 11.378 5.7627 14.4441 5.7627 18.2263C5.7627 22.0086 8.82881 25.0747 12.6111 25.0747C16.3933 25.0747 19.4595 22.0086 19.4595 18.2263C19.4595 14.4441 16.3933 11.378 12.6111 11.378Z" stroke="white" stroke-width="0.722222" stroke-miterlimit="10" stroke-linecap="round" stroke-linejoin="round"/>
<path d="M5.7627 18.2261C5.7627 21.0549 7.47788 23.4829 9.92489 24.5273C10.1084 24.2234 10.1157 23.8223 9.88732 23.4008C9.40966 22.5189 9.64851 22.2249 10.4018 20.6816C11.1551 19.1383 9.61173 19.6344 9.15244 18.6611C8.69314 17.6877 7.24169 18.0544 7.18659 16.9152C7.13145 15.7761 8.47265 16.2905 8.5278 15.078C8.5829 13.8654 9.44639 13.9205 10.2181 13.2775C10.7599 12.826 10.722 12.0719 10.6513 11.6628C7.82417 12.5057 5.7627 15.125 5.7627 18.2261Z" stroke="white" stroke-width="0.722222" stroke-miterlimit="10" stroke-linecap="round" stroke-linejoin="round"/>
<path d="M12.6135 11.3778C12.5333 11.3778 12.4536 11.3797 12.374 11.3824C12.4617 11.5103 12.5995 11.6349 12.8113 11.7426C13.7231 12.2059 13.822 12.4745 13.4782 13.0276C13.1345 13.5806 13.5082 13.9244 14.0163 13.8646C14.5245 13.8048 15.9676 12.8571 16.4906 13.3204C17.0138 13.7838 17.0861 14.7021 16.6675 14.8665C16.2491 15.0309 14.399 14.5712 13.9058 15.8118C13.4125 17.0523 13.4092 17.9444 14.7395 18.341C16.0697 18.7376 16.5779 18.2742 16.6975 19.2159C16.817 20.1575 16.1295 20.4714 16.2192 21.3233C16.2842 21.941 16.9468 22.7522 17.5854 22.9355C18.7484 21.7081 19.4619 20.0506 19.4619 18.2262C19.4619 14.4439 16.3958 11.3778 12.6135 11.3778Z" stroke="white" stroke-width="0.722222" stroke-miterlimit="10" stroke-linecap="round" stroke-linejoin="round"/>
<path d="M23.8432 11.9797C26.2313 11.3817 27.315 8.3553 25.5492 6.359C24.6099 5.29709 23.7805 4.12809 23.2202 2.88814C23.126 2.6797 22.8325 2.6797 22.7383 2.88814C22.178 4.12809 21.3486 5.29709 20.4093 6.359C18.6435 8.3553 19.7272 11.3817 22.1153 11.9797" stroke="white" stroke-width="0.722222" stroke-miterlimit="10" stroke-linecap="round" stroke-linejoin="round"/>
<path d="M21.6034 19.0902C21.9167 15.9483 20.7242 13.7945 19.3558 12.2475C16.8916 9.46159 14.7158 6.39488 13.2459 3.14195C12.9988 2.59512 12.2287 2.59512 11.9816 3.14195C10.5117 6.39488 8.33602 9.46159 5.87178 12.2475C0.711855 18.081 4.82567 27.269 12.6138 27.269C17.6672 27.269 21.1737 23.4006 21.6034 19.0902Z" stroke="white" stroke-width="0.722222" stroke-miterlimit="10" stroke-linecap="round" stroke-linejoin="round"/>
</g>
</svg>
