<svg width="22" height="24" viewBox="0 0 22 24" fill="none" xmlns="http://www.w3.org/2000/svg">
<g clip-path="url(#clip0_935_2530)">
<path d="M20.4725 10.5C20.4725 7.91414 19.434 5.43419 17.5854 3.60571C15.7369 1.77723 13.2297 0.75 10.6154 0.75C8.00111 0.75 5.49391 1.77723 3.64533 3.60571C1.79676 5.43419 0.758242 7.91414 0.758242 10.5C0.758242 13.0859 1.79676 15.5658 3.64533 17.3943C5.49391 19.2228 8.00111 20.25 10.6154 20.25C13.2297 20.25 15.7369 19.2228 17.5854 17.3943C19.434 15.5658 20.4725 13.0859 20.4725 10.5ZM21.2308 10.5C21.2308 13.9547 19.5437 17.0156 16.942 18.9328L19.4773 22.1906C19.7427 22.5281 19.7854 22.9875 19.5958 23.3719C19.4062 23.7563 19.0082 24 18.5769 24H2.65385C2.2226 24 1.82452 23.7563 1.63496 23.3719C1.4454 22.9875 1.48805 22.5281 1.75343 22.1906L4.28881 18.9328C1.68709 17.0156 0 13.9547 0 10.5C0 4.70156 4.75323 0 10.6154 0C16.4775 0 21.2308 4.70156 21.2308 10.5ZM10.6154 21C8.516 21 6.55879 20.3953 4.90962 19.3547L2.35055 22.6453C2.26051 22.7578 2.24629 22.9125 2.31264 23.0391C2.37898 23.1656 2.50694 23.25 2.65385 23.25H18.5769C18.7191 23.25 18.8518 23.1703 18.9181 23.0391C18.9845 22.9078 18.9655 22.7578 18.8802 22.6453L16.3212 19.3547C14.672 20.3953 12.7148 21 10.6154 21ZM16.6813 10.5C16.6813 8.9087 16.0422 7.38258 14.9046 6.25736C13.7671 5.13214 12.2242 4.5 10.6154 4.5C9.0066 4.5 7.4637 5.13214 6.32612 6.25736C5.18854 7.38258 4.54945 8.9087 4.54945 10.5C4.54945 12.0913 5.18854 13.6174 6.32612 14.7426C7.4637 15.8679 9.0066 16.5 10.6154 16.5C12.2242 16.5 13.7671 15.8679 14.9046 14.7426C16.0422 13.6174 16.6813 12.0913 16.6813 10.5ZM3.79121 10.5C3.79121 9.61358 3.96772 8.73583 4.31067 7.91689C4.65362 7.09794 5.15628 6.35382 5.78996 5.72703C6.42365 5.10023 7.17594 4.60303 8.00389 4.26381C8.83183 3.92459 9.71922 3.75 10.6154 3.75C11.5115 3.75 12.3989 3.92459 13.2269 4.26381C14.0548 4.60303 14.8071 5.10023 15.4408 5.72703C16.0745 6.35382 16.5772 7.09794 16.9201 7.91689C17.263 8.73583 17.4396 9.61358 17.4396 10.5C17.4396 11.3864 17.263 12.2642 16.9201 13.0831C16.5772 13.9021 16.0745 14.6462 15.4408 15.273C14.8071 15.8998 14.0548 16.397 13.2269 16.7362C12.3989 17.0754 11.5115 17.25 10.6154 17.25C9.71922 17.25 8.83183 17.0754 8.00389 16.7362C7.17594 16.397 6.42365 15.8998 5.78996 15.273C5.15628 14.6462 4.65362 13.9021 4.31067 13.0831C3.96772 12.2642 3.79121 11.3864 3.79121 10.5ZM7.96154 10.5C7.96154 10.7063 7.79093 10.875 7.58242 10.875C7.3739 10.875 7.2033 10.7063 7.2033 10.5C7.2033 8.63437 8.72926 7.125 10.6154 7.125C10.8239 7.125 10.9945 7.29375 10.9945 7.5C10.9945 7.70625 10.8239 7.875 10.6154 7.875C9.15103 7.875 7.96154 9.05156 7.96154 10.5Z" fill="black"/>
</g>
<defs>
<clipPath id="clip0_935_2530">
<rect width="21.2308" height="24" fill="white"/>
</clipPath>
</defs>
</svg>
