<svg width="21" height="24" viewBox="0 0 21 24" fill="none" xmlns="http://www.w3.org/2000/svg">
<path d="M13.5 0.75C14.7422 0.75 15.75 1.75781 15.75 3V12H16.5V3C16.5 1.34531 15.1547 0 13.5 0H7.5C5.84531 0 4.5 1.34531 4.5 3V12H5.25V3C5.25 1.75781 6.25781 0.75 7.5 0.75H13.5ZM2.25 7.875C2.25 7.66875 2.08125 7.5 1.875 7.5C1.66875 7.5 1.5 7.66875 1.5 7.875V11.625C1.5 11.8313 1.66875 12 1.875 12C2.08125 12 2.25 11.8313 2.25 11.625V7.875ZM19.5 7.875C19.5 7.66875 19.3312 7.5 19.125 7.5C18.9188 7.5 18.75 7.66875 18.75 7.875V11.625C18.75 11.8313 18.9188 12 19.125 12C19.3312 12 19.5 11.8313 19.5 11.625V7.875ZM3.75 14.25H17.25C17.5359 14.25 17.7937 14.4094 17.9203 14.6625L18.6703 16.1625C18.7875 16.3969 18.7734 16.6734 18.6375 16.8937C18.5016 17.1141 18.2578 17.25 18 17.25H10.5H3C2.74219 17.25 2.49844 17.1141 2.3625 16.8937C2.22656 16.6734 2.2125 16.3969 2.32969 16.1625L3.07969 14.6625C3.20625 14.4094 3.46875 14.25 3.75 14.25ZM10.875 18H18C18.5203 18 19.0031 17.7328 19.275 17.2875C19.5469 16.8422 19.575 16.2938 19.3406 15.8297L18.5906 14.3297C18.3375 13.8188 17.8172 13.5 17.25 13.5H3.75C3.18281 13.5 2.6625 13.8188 2.40938 14.3297L1.65938 15.8297C1.425 16.2938 1.45312 16.8469 1.725 17.2875C1.99687 17.7281 2.47969 18 3 18H10.125V21H8.625C7.17656 21 6 22.1766 6 23.625C6 23.8312 6.16875 24 6.375 24C6.58125 24 6.75 23.8312 6.75 23.625C6.75 22.5891 7.58906 21.75 8.625 21.75H10.125V23.625C10.125 23.8312 10.2937 24 10.5 24C10.7063 24 10.875 23.8312 10.875 23.625V21.75H12.375C13.4109 21.75 14.25 22.5891 14.25 23.625C14.25 23.8312 14.4187 24 14.625 24C14.8313 24 15 23.8312 15 23.625C15 22.1766 13.8234 21 12.375 21H10.875V18Z" fill="black"/>
</svg>
