<svg width="16" height="16" viewBox="0 0 16 16" fill="none" xmlns="http://www.w3.org/2000/svg">
<g clip-path="url(#clip0_771_4211)">
<path d="M13.353 0.146777C13.1593 -0.0469727 12.8405 -0.0469727 12.6468 0.146777L0.146777 12.6468C-0.0469727 12.8405 -0.0469727 13.1593 0.146777 13.353C1.84053 15.0468 4.14053 15.9999 6.53428 15.9999H6.65928C11.8187 15.9999 15.9999 11.8187 15.9999 6.6624V6.5374C15.9999 4.14053 15.0468 1.84365 13.353 0.146777ZM8.7124 5.49365L11.5062 2.6999C12.178 3.4874 12.6593 4.44678 12.8718 5.50303H8.71553L8.70928 5.49678L8.7124 5.49365ZM9.2374 6.4999H12.9968C12.9999 6.58428 13.003 6.66553 13.003 6.7499C13.003 8.29678 12.4405 9.70928 11.5124 10.803L8.93428 8.2249C9.26865 7.70928 9.37178 7.08428 9.24053 6.4999H9.2374ZM10.803 11.5093C9.70928 12.4374 8.29678 12.9999 6.7499 12.9999C6.66553 12.9999 6.58428 12.9968 6.4999 12.9937V9.18115C7.0749 9.3249 7.69365 9.2374 8.21553 8.91865L10.803 11.5062V11.5093ZM5.4999 12.8749C4.44678 12.6593 3.4874 12.1812 2.69678 11.5093L5.4999 8.70615V12.8749ZM13.9999 6.7499C13.9999 4.92803 13.328 3.2624 12.2187 1.99053L12.9874 1.21865C14.2812 2.68115 14.9999 4.57178 14.9999 6.53428V6.65928C14.9999 11.2655 11.2655 14.9999 6.6624 14.9999H6.5374C4.57178 14.9999 2.68115 14.2812 1.21865 12.9874L1.99053 12.2187C3.26553 13.328 4.92803 13.9999 6.7499 13.9999C10.753 13.9999 13.9999 10.753 13.9999 6.7499ZM8.00615 6.20303C8.41553 6.69365 8.3874 7.4249 7.92803 7.88428C7.46865 8.34365 6.7374 8.37178 6.24678 7.9624L8.00615 6.20303Z" fill="#1C2B39"/>
</g>
<defs>
<clipPath id="clip0_771_4211">
<rect width="16" height="16" fill="white"/>
</clipPath>
</defs>
</svg>
