<svg width="121" height="42" viewBox="0 0 121 42" fill="none" xmlns="http://www.w3.org/2000/svg">
<rect width="121" height="41.2958" rx="20.6479" fill="white"/>
<g clip-path="url(#clip0_1251_1514)">
<rect width="113" height="29.2958" transform="translate(8 6)" fill="white"/>
<path d="M18.6382 24.8604C17.0358 28.337 13.9046 30.6474 10.3838 31.3862C11.3908 32.6103 12.6991 33.6315 14.2574 34.3341C19.6746 36.7604 26.1576 34.4644 28.0981 28.9236C29.5608 24.759 27.8775 19.3413 24.8713 14.1554C22.3428 9.79524 18.5279 6.04343 18.5279 6.04343L18.8587 24.3534C18.7926 24.5272 18.719 24.6938 18.6382 24.8676V24.8604Z" fill="url(#paint0_linear_1251_1514)"/>
<path d="M18.6384 24.8604C18.7192 24.6938 18.7854 24.52 18.8589 24.3462L18.7119 24.6649C18.8515 24.3534 19.6453 22.8904 20.1084 19.8411C20.7699 15.4519 18.5355 6 18.5355 6C18.5355 6 12.6919 13.9527 11.119 16.2631C10.3178 17.4437 8.97269 20.3047 8.97269 20.3047C7.22331 24.0999 7.91424 28.366 10.3986 31.379C13.9195 30.6402 17.0507 28.3297 18.6531 24.8532L18.6384 24.8604Z" fill="url(#paint1_linear_1251_1514)"/>
<g style="mix-blend-mode:multiply">
<path d="M19.0934 24.0564C18.8656 24.3316 18.623 24.6069 18.3658 24.8676L18.6598 24.5707C18.5128 24.73 18.3658 24.8966 18.2114 25.0487C15.6829 27.6199 12.3679 28.9961 9.00146 29.1554C9.37633 29.9521 9.84675 30.7126 10.4127 31.4007C13.985 30.6547 17.1677 28.3007 18.7921 24.7735C18.8729 24.5996 18.9464 24.4258 19.0126 24.252L18.8582 24.5779C18.9391 24.4041 19.0126 24.2302 19.0787 24.0564H19.0934Z" fill="url(#paint2_linear_1251_1514)"/>
</g>
<g style="mix-blend-mode:multiply">
<path d="M19.0572 24.1507C19.0057 24.2376 18.9616 24.3173 18.9028 24.4042L19.0351 24.1942C19.0351 24.1942 19.0498 24.1652 19.0572 24.1507Z" fill="url(#paint3_linear_1251_1514)"/>
<path d="M19.0275 24.2232C18.954 24.3536 18.8805 24.4767 18.7997 24.6071C16.7195 27.9026 13.3751 29.9451 9.76611 30.5173C9.97192 30.8215 10.1851 31.1257 10.4203 31.4081C13.9925 30.6621 17.1752 28.3082 18.7997 24.7809C18.8805 24.6071 18.954 24.4333 19.0202 24.2594L18.8658 24.5854C18.9173 24.4622 18.9687 24.3463 19.0202 24.2232H19.0275Z" fill="url(#paint4_linear_1251_1514)"/>
</g>
<path d="M84.0859 25.5849C83.7478 25.6718 83.3656 25.7587 82.9246 25.8456C82.4835 25.9325 82.0278 26.0122 81.5574 26.0919C81.087 26.1715 80.6166 26.244 80.1461 26.3164C79.6757 26.3888 79.2494 26.4468 78.8745 26.4902C78.8966 26.9248 78.948 27.3014 79.0215 27.6346C79.1024 27.9605 79.2421 28.243 79.4479 28.4603C79.6537 28.6848 79.9256 28.8514 80.2784 28.9673C80.6313 29.0832 81.0796 29.1339 81.6383 29.1339C82.1969 29.1339 82.66 29.0904 83.0422 28.9963C83.4244 28.9093 83.7405 28.8079 83.9904 28.6993C84.2403 28.5907 84.4387 28.4893 84.5857 28.3951C84.7327 28.3009 84.8503 28.2502 84.9386 28.2358C85.1003 28.2358 85.2326 28.2792 85.3281 28.3806C85.4237 28.482 85.4751 28.6196 85.4751 28.779C85.4751 28.9963 85.3869 29.2063 85.2179 29.4019C85.0488 29.5974 84.7989 29.7712 84.4681 29.9233C84.1447 30.0754 83.7551 30.1913 83.2921 30.2855C82.829 30.3724 82.3071 30.4231 81.7265 30.4231C81.0502 30.4231 80.4769 30.3724 79.9918 30.271C79.514 30.1696 79.1098 30.0175 78.7863 29.8147C78.4629 29.6119 78.2057 29.3656 78.0146 29.0759C77.8234 28.7862 77.6838 28.4603 77.5809 28.0837C77.478 27.707 77.4192 27.2942 77.3898 26.8451C77.3604 26.3888 77.353 25.9036 77.353 25.3821C77.353 24.5491 77.4045 23.7959 77.5074 23.1151C77.6103 22.4342 77.8234 21.8548 78.1395 21.3768C78.4556 20.8987 78.9113 20.5294 79.492 20.2686C80.08 20.0079 80.8444 19.8775 81.8 19.8775C82.4247 19.8775 82.9981 19.9354 83.5273 20.0513C84.0565 20.1672 84.5122 20.3483 84.9018 20.5945C85.2914 20.8408 85.6001 21.1595 85.8279 21.5506C86.0558 21.9417 86.1808 22.4125 86.2102 22.963C86.2322 23.3468 86.2102 23.68 86.1587 23.9552C86.1073 24.2305 85.997 24.4695 85.8353 24.6795C85.6736 24.8823 85.4531 25.0634 85.1664 25.2082C84.8797 25.3531 84.5196 25.4835 84.0786 25.5921L84.0859 25.5849ZM82.1969 21.1088C81.675 21.1088 81.2266 21.1522 80.8591 21.2392C80.4916 21.3261 80.1829 21.4492 79.9477 21.6158C79.7125 21.7824 79.514 21.9852 79.3744 22.2242C79.2347 22.4632 79.1318 22.7384 79.0583 23.0499C78.9848 23.3613 78.9407 23.709 78.9186 24.0928C78.8966 24.4767 78.8745 24.8823 78.8672 25.3241C79.1539 25.2807 79.4993 25.23 79.8962 25.172C80.2932 25.1141 80.7048 25.0489 81.1311 24.9837C81.5574 24.9185 81.9764 24.8461 82.388 24.7737C82.7996 24.7012 83.1671 24.6288 83.4905 24.5636C83.9463 24.4622 84.277 24.2956 84.4828 24.0639C84.6886 23.8321 84.7768 23.4844 84.7401 23.0209C84.7254 22.7095 84.6445 22.4415 84.4975 22.2025C84.3505 21.9634 84.1594 21.7679 83.9242 21.6085C83.689 21.4492 83.4244 21.3261 83.123 21.2464C82.8217 21.1667 82.5129 21.1233 82.1969 21.1233V21.1088Z" fill="#25303B"/>
<path d="M110.333 25.5849C109.995 25.6718 109.613 25.7587 109.172 25.8456C108.731 25.9325 108.275 26.0122 107.805 26.0919C107.335 26.1715 106.864 26.244 106.394 26.3164C105.923 26.3888 105.497 26.4468 105.122 26.4902C105.144 26.9248 105.196 27.3014 105.269 27.6346C105.35 27.9605 105.49 28.243 105.695 28.4603C105.901 28.6848 106.173 28.8514 106.526 28.9673C106.879 29.0832 107.327 29.1339 107.886 29.1339C108.444 29.1339 108.908 29.0904 109.29 28.9963C109.672 28.9093 109.988 28.8079 110.238 28.6993C110.488 28.5907 110.686 28.4893 110.833 28.3951C110.98 28.3009 111.098 28.2502 111.186 28.2358C111.348 28.2358 111.48 28.2792 111.576 28.3806C111.671 28.482 111.723 28.6196 111.723 28.779C111.723 28.9963 111.634 29.2063 111.465 29.4019C111.296 29.5974 111.046 29.7712 110.716 29.9233C110.392 30.0754 110.003 30.1913 109.54 30.2855C109.077 30.3724 108.555 30.4231 107.974 30.4231C107.298 30.4231 106.724 30.3724 106.239 30.271C105.762 30.1696 105.357 30.0175 105.034 29.8147C104.71 29.6119 104.453 29.3656 104.262 29.0759C104.071 28.7862 103.931 28.4603 103.828 28.0837C103.726 27.707 103.667 27.2942 103.637 26.8451C103.608 26.3888 103.601 25.9036 103.601 25.3821C103.601 24.5491 103.652 23.7959 103.755 23.1151C103.858 22.4342 104.071 21.8548 104.387 21.3768C104.703 20.8987 105.159 20.5294 105.74 20.2686C106.328 20.0079 107.092 19.8775 108.048 19.8775C108.672 19.8775 109.246 19.9354 109.775 20.0513C110.304 20.1672 110.76 20.3483 111.149 20.5945C111.539 20.8408 111.848 21.1595 112.075 21.5506C112.303 21.9417 112.428 22.4125 112.458 22.963C112.48 23.3468 112.458 23.68 112.406 23.9552C112.355 24.2305 112.245 24.4695 112.083 24.6795C111.921 24.8823 111.701 25.0634 111.414 25.2082C111.127 25.3531 110.767 25.4835 110.326 25.5921L110.333 25.5849ZM108.444 21.1088C107.923 21.1088 107.474 21.1522 107.107 21.2392C106.739 21.3261 106.43 21.4492 106.195 21.6158C105.96 21.7824 105.762 21.9852 105.622 22.2242C105.482 22.4632 105.379 22.7384 105.306 23.0499C105.232 23.3613 105.188 23.709 105.166 24.0928C105.144 24.4767 105.122 24.8823 105.115 25.3241C105.401 25.2807 105.747 25.23 106.144 25.172C106.541 25.1141 106.952 25.0489 107.379 24.9837C107.805 24.9185 108.224 24.8461 108.636 24.7737C109.047 24.7012 109.415 24.6288 109.738 24.5636C110.194 24.4622 110.525 24.2956 110.73 24.0639C110.936 23.8321 111.024 23.4844 110.988 23.0209C110.973 22.7095 110.892 22.4415 110.745 22.2025C110.598 21.9634 110.407 21.7679 110.172 21.6085C109.937 21.4492 109.672 21.3261 109.371 21.2464C109.069 21.1667 108.761 21.1233 108.444 21.1233V21.1088Z" fill="#25303B"/>
<path d="M88.4523 17.3424C88.4523 16.9513 88.7904 16.6037 89.1726 16.6037C89.5769 16.6037 89.8929 16.9513 89.8929 17.3424V19.7688H92.6199C93.0021 19.7688 93.2961 20.073 93.2961 20.4641C93.2961 20.8552 93.0021 21.1594 92.6199 21.1594H89.8929V27.5404C89.8929 28.5327 90.4369 29.0686 91.2013 29.0686C91.5835 29.0686 91.8996 29.3728 91.8996 29.7639C91.8996 30.1551 91.5835 30.4593 91.2013 30.4593C89.4225 30.4593 88.4523 29.2352 88.4523 27.5476V21.1667H87.5776C87.1954 21.1667 86.9014 20.8625 86.9014 20.4713C86.9014 20.0802 87.1954 19.776 87.5776 19.776H88.4523V17.3497V17.3424Z" fill="#25303B"/>
<path d="M95.1256 19.7689H101.293C101.675 19.7689 101.969 20.0731 101.969 20.4642C101.969 20.6742 101.881 20.8336 101.814 20.9277L96.2061 28.8369H101.403C101.785 28.8369 102.101 29.1629 102.101 29.554C102.101 29.9451 101.785 30.271 101.403 30.271H94.8095C94.4273 30.271 94.1333 29.9668 94.1333 29.5757C94.1333 29.3657 94.1995 29.228 94.2877 29.1122L99.9621 21.1523H95.1256C94.7434 21.1523 94.4494 20.8481 94.4494 20.4569C94.4494 20.0658 94.7434 19.7616 95.1256 19.7616V19.7689Z" fill="#25303B"/>
<path d="M115.994 21.3405C116.442 20.2758 117.567 19.4863 119.125 19.4863C119.507 19.4863 119.823 19.8122 119.823 20.2034C119.823 20.5945 119.507 20.9204 119.125 20.9204C117.052 20.9204 115.994 22.3979 115.994 24.5273V29.706C115.994 30.1188 115.678 30.4448 115.274 30.4448C114.869 30.4448 114.553 30.1188 114.553 29.706V20.312C114.553 19.8919 114.869 19.5732 115.274 19.5732C115.678 19.5732 115.994 19.8992 115.994 20.312V21.3332V21.3405Z" fill="#25303B"/>
<path d="M71.7815 19.3994C70.0468 19.3994 69.0545 20.1164 68.4959 21.0218L68.2386 21.6664L67.9814 21.0218C67.4154 20.1164 66.4304 19.3994 64.6958 19.3994C61.2264 19.3994 60.4399 21.5288 60.4399 23.4916V29.6697C60.4399 30.0826 60.756 30.4085 61.1603 30.4085C61.5645 30.4085 61.8806 30.0826 61.8806 29.6697V23.7958C61.8806 21.9706 62.5127 20.7176 64.6958 20.7176C66.6289 20.7176 67.5109 21.7823 67.5109 23.4916V29.6697C67.5109 30.0826 67.827 30.4085 68.2313 30.4085C68.6355 30.4085 68.9516 30.0826 68.9516 29.6697V23.4916C68.9516 21.7823 69.8263 20.7176 71.7668 20.7176C73.9498 20.7176 74.5819 21.9633 74.5819 23.7958V29.6697C74.5819 30.0826 74.898 30.4085 75.3023 30.4085C75.7065 30.4085 76.0226 30.0826 76.0226 29.6697V23.4916C76.0226 21.5288 75.2361 19.3994 71.7668 19.3994H71.7815Z" fill="#25303B"/>
<path d="M35.8528 15.8286C35.6029 15.8286 35.3897 15.8793 35.228 15.9807C35.0516 16.0894 34.9634 16.2487 34.9634 16.4515V29.8725C34.9634 30.0753 35.0663 30.2202 35.2574 30.2926C35.4264 30.3506 35.6249 30.3868 35.8528 30.3868C35.9483 30.3868 36.0512 30.3868 36.1541 30.3723C36.2497 30.3651 36.3452 30.3361 36.4261 30.2999C36.5143 30.2637 36.5804 30.213 36.6319 30.1478C36.6907 30.0826 36.7128 29.9884 36.7128 29.8798V16.4733C36.7128 16.2125 36.6246 16.0387 36.4481 15.9518C36.2938 15.8721 36.088 15.8286 35.8454 15.8286H35.8528Z" fill="#00D675"/>
<path d="M45.239 20.283C45.0479 20.1671 44.8127 20.0729 44.526 20.0005C44.2467 19.9281 43.9086 19.8846 43.519 19.8701C43.1662 19.8629 42.8061 19.8701 42.4385 19.8919C42.071 19.9136 41.7109 19.957 41.3507 20.0222C40.9979 20.0802 40.6598 20.1671 40.3437 20.2685C40.035 20.3699 39.7483 20.493 39.5058 20.6379C39.2632 20.7827 39.0648 20.9493 38.9251 21.1304C38.7781 21.3187 38.7046 21.536 38.7046 21.7678V29.8725C38.7046 30.0826 38.8075 30.2274 38.9913 30.2926C39.153 30.3506 39.3514 30.3868 39.5646 30.3868C39.6675 30.3868 39.763 30.3868 39.8512 30.3723C39.9541 30.365 40.0423 30.3361 40.1232 30.2999C40.2041 30.2636 40.2702 30.2129 40.3217 30.1478C40.3805 30.0826 40.4025 29.9884 40.4025 29.8798V22.2168C40.4025 22.2168 40.4172 22.1299 40.4981 21.9923C40.5642 21.8909 40.6965 21.7895 40.9023 21.6881C41.1081 21.5867 41.4095 21.4925 41.7991 21.4129C42.1813 21.3332 42.7032 21.2897 43.35 21.2897C43.6808 21.2897 43.938 21.3115 44.1144 21.3549C44.2982 21.4056 44.4452 21.4563 44.5554 21.507C44.673 21.565 44.7686 21.6157 44.8568 21.6591C44.9524 21.7098 45.07 21.7388 45.2096 21.7388C45.3346 21.7388 45.4301 21.7171 45.511 21.6808C45.5918 21.6446 45.6506 21.5867 45.6947 21.5215C45.7315 21.4563 45.7609 21.3984 45.7756 21.3332C45.7903 21.268 45.7976 21.2101 45.7976 21.1521C45.7976 20.9928 45.7535 20.8334 45.658 20.6813C45.5624 20.5365 45.4228 20.3989 45.2317 20.283H45.239Z" fill="#00D675"/>
<path d="M53.2293 20.283C53.0381 20.1671 52.8029 20.0729 52.5163 20.0005C52.237 19.9281 51.8988 19.8846 51.5093 19.8701C51.1565 19.8629 50.7963 19.8701 50.4288 19.8919C50.0613 19.9136 49.6938 19.957 49.3409 20.0222C48.9881 20.0802 48.65 20.1671 48.3339 20.2685C48.0252 20.3699 47.7386 20.493 47.496 20.6379C47.2534 20.7827 47.055 20.9493 46.9153 21.1304C46.7683 21.3187 46.6948 21.536 46.6948 21.7678V29.8725C46.6948 30.0826 46.7977 30.2274 46.9815 30.2926C47.1432 30.3506 47.3417 30.3868 47.5548 30.3868C47.6577 30.3868 47.7533 30.3868 47.8415 30.3723C47.9444 30.3578 48.0326 30.3361 48.1134 30.2999C48.1943 30.2636 48.2604 30.2129 48.3119 30.1478C48.3707 30.0826 48.3927 29.9884 48.3927 29.8798V22.2168C48.3927 22.2168 48.4074 22.1299 48.4883 21.9923C48.5545 21.8909 48.6868 21.7895 48.8926 21.6881C49.0984 21.5867 49.3997 21.4925 49.7893 21.4129C50.1715 21.3332 50.6934 21.2897 51.3402 21.2897C51.671 21.2897 51.9282 21.3115 52.1047 21.3549C52.2884 21.4056 52.4354 21.4563 52.5457 21.507C52.6633 21.565 52.7588 21.6157 52.847 21.6591C52.9426 21.7098 53.0602 21.7388 53.1999 21.7388C53.3248 21.7388 53.4204 21.7171 53.5012 21.6808C53.5821 21.6446 53.6409 21.5867 53.685 21.5215C53.7217 21.4563 53.7511 21.3984 53.7658 21.3332C53.7805 21.268 53.7879 21.2101 53.7879 21.1521C53.7879 20.9928 53.7438 20.8334 53.6482 20.6813C53.5527 20.5365 53.413 20.3989 53.2219 20.283H53.2293Z" fill="#00D675"/>
<path d="M56.8087 19.9788C56.647 19.9208 56.4559 19.8846 56.2354 19.8846C56.1398 19.8846 56.0369 19.8846 55.9487 19.8991C55.8458 19.9136 55.7576 19.9353 55.6841 19.9715C55.5959 20.0078 55.5298 20.0657 55.4783 20.1309C55.4269 20.2033 55.3975 20.2902 55.3975 20.3916V29.8653C55.3975 30.0681 55.493 30.2129 55.6841 30.2854C55.8532 30.3433 56.0443 30.3795 56.2574 30.3795C56.3457 30.3795 56.4412 30.3795 56.5441 30.365C56.647 30.3578 56.7352 30.3288 56.8161 30.2926C56.8969 30.2564 56.9631 30.2057 57.0145 30.1405C57.0733 30.0753 57.0954 29.9812 57.0954 29.8725V20.3989C57.0954 20.1888 56.9998 20.044 56.8161 19.9788H56.8087Z" fill="#00D675"/>
<path d="M56.8083 15.9301C56.6466 15.8722 56.4554 15.8359 56.2349 15.8359C56.1394 15.8359 56.0365 15.8359 55.9409 15.8504C55.838 15.8649 55.7498 15.8866 55.669 15.9229C55.5808 15.9663 55.5146 16.017 55.4705 16.0822C55.4191 16.1546 55.3896 16.2415 55.3896 16.3429V17.9291C55.3896 18.1392 55.4852 18.284 55.6763 18.3492C55.838 18.4072 56.0291 18.4434 56.2496 18.4434C56.3452 18.4434 56.4481 18.4434 56.5436 18.4289C56.6466 18.4144 56.7348 18.3927 56.8156 18.3565C56.8965 18.313 56.9626 18.2695 57.0141 18.2044C57.0729 18.1392 57.0949 18.045 57.0949 17.9364V16.3502C57.0949 16.1401 56.9994 15.9953 56.8156 15.9301H56.8083Z" fill="#00D675"/>
</g>
<defs>
<linearGradient id="paint0_linear_1251_1514" x1="21.8156" y1="1.74146" x2="18.2226" y2="45.1333" gradientUnits="userSpaceOnUse">
<stop stop-color="#3ED307"/>
<stop offset="0.13" stop-color="#37CE1E"/>
<stop offset="0.41" stop-color="#26C45A"/>
<stop offset="0.8" stop-color="#0CB3BA"/>
<stop offset="0.98" stop-color="#00ACE7"/>
</linearGradient>
<linearGradient id="paint1_linear_1251_1514" x1="15.9664" y1="32.3583" x2="10.8475" y2="-1.20311" gradientUnits="userSpaceOnUse">
<stop offset="0.02" stop-color="#0077BF"/>
<stop offset="0.64" stop-color="#02A7E6"/>
<stop offset="1" stop-color="#03BFF9"/>
</linearGradient>
<linearGradient id="paint2_linear_1251_1514" x1="28.183" y1="21.8039" x2="4.41155" y2="32.9357" gradientUnits="userSpaceOnUse">
<stop stop-color="#42009E"/>
<stop offset="0.11" stop-color="#581EA9"/>
<stop offset="0.55" stop-color="#B195D6"/>
<stop offset="0.86" stop-color="#E9E1F3"/>
<stop offset="1" stop-color="white"/>
</linearGradient>
<linearGradient id="paint3_linear_1251_1514" x1="21.7538" y1="23.8274" x2="5.22586" y2="26.697" gradientUnits="userSpaceOnUse">
<stop stop-color="#42009E"/>
<stop offset="0.11" stop-color="#581EA9"/>
<stop offset="0.55" stop-color="#B195D6"/>
<stop offset="0.86" stop-color="#E9E1F3"/>
<stop offset="1" stop-color="white"/>
</linearGradient>
<linearGradient id="paint4_linear_1251_1514" x1="22.2292" y1="26.5618" x2="5.70123" y2="29.4315" gradientUnits="userSpaceOnUse">
<stop stop-color="#42009E"/>
<stop offset="0.11" stop-color="#581EA9"/>
<stop offset="0.55" stop-color="#B195D6"/>
<stop offset="0.86" stop-color="#E9E1F3"/>
<stop offset="1" stop-color="white"/>
</linearGradient>
<clipPath id="clip0_1251_1514">
<rect width="113" height="29.2958" fill="white" transform="translate(8 6)"/>
</clipPath>
</defs>
</svg>
