<svg width="123" height="32" viewBox="0 0 123 32" fill="none" xmlns="http://www.w3.org/2000/svg">
<path d="M101.638 21.9403C100.95 21.9403 100.334 21.4588 100.196 20.7625C100.039 19.9717 100.555 19.2022 101.355 19.0441C115.157 16.3296 120.054 12.8669 120.054 10.7236C120.054 8.83291 116.268 5.8989 105.64 3.33785C104.85 3.14665 104.365 2.35828 104.558 1.57462C104.75 0.790958 105.547 0.309432 106.338 0.500626C117.393 3.16554 123 6.60703 123 10.726C123 16.5468 111.539 20.0213 101.928 21.912C101.83 21.9309 101.735 21.9403 101.64 21.9403H101.638Z" fill="url(#paint0_linear_1517_3106)"/>
<path d="M61.4999 25.3037C45.3635 25.3037 30.1765 23.9276 18.7374 21.4279C6.30372 18.711 0 15.1114 0 10.7257C0 7.94516 2.58193 5.45256 7.67678 3.3211C8.88089 2.81597 10.2444 2.325 11.727 1.85764C12.5027 1.61452 13.3309 2.03939 13.576 2.80889C13.8211 3.57839 13.3927 4.39981 12.617 4.64294C11.2201 5.08197 9.9446 5.54225 8.8214 6.01198C5.08771 7.57693 2.94602 9.29296 2.94602 10.7257C2.94602 15.5929 25.222 22.3815 61.4999 22.3815C69.9477 22.3815 78.11 22.0038 85.7582 21.2603C86.5696 21.1777 87.2883 21.7678 87.3668 22.5703C87.4454 23.3729 86.8552 24.0881 86.0461 24.166C78.3027 24.9189 70.0429 25.3013 61.4999 25.3013V25.3037Z" fill="url(#paint1_linear_1517_3106)"/>
<path d="M77.8362 31.4908C77.4102 31.4908 76.989 31.3091 76.6963 30.955C76.1871 30.3389 76.3132 29.4184 76.9129 28.8896L83.7591 22.847L75.2638 18.5817C74.538 18.2182 74.2476 17.3377 74.6141 16.6178C74.9806 15.8979 75.8682 15.6099 76.594 15.9734L87.2358 21.3174C88.0568 21.7305 88.202 22.8352 87.5142 23.4418L78.8166 31.1202C78.5358 31.3681 78.186 31.4908 77.8385 31.4908H77.8362Z" fill="url(#paint2_linear_1517_3106)"/>
<defs>
<linearGradient id="paint0_linear_1517_3106" x1="100.167" y1="21.8915" x2="126.033" y2="20.7252" gradientUnits="userSpaceOnUse">
<stop stop-color="#00AEEF"/>
<stop offset="0.511623" stop-color="#00AECD"/>
<stop offset="1" stop-color="#00AF89"/>
</linearGradient>
<linearGradient id="paint1_linear_1517_3106" x1="-4.33807e-07" y1="25.2503" x2="96.7766" y2="9.9946" gradientUnits="userSpaceOnUse">
<stop stop-color="#00AEEF"/>
<stop offset="0.511623" stop-color="#00AECD"/>
<stop offset="1" stop-color="#00AF89"/>
</linearGradient>
<linearGradient id="paint2_linear_1517_3106" x1="74.4556" y1="31.4552" x2="89.7554" y2="30.8963" gradientUnits="userSpaceOnUse">
<stop stop-color="#00AEEF"/>
<stop offset="0.511623" stop-color="#00AECD"/>
<stop offset="1" stop-color="#00AF89"/>
</linearGradient>
</defs>
</svg>
