<svg width="393" height="138" viewBox="0 0 393 138" fill="none" xmlns="http://www.w3.org/2000/svg">
<path d="M89.88 49V22.64H97C99.6667 22.64 101.787 23.16 103.36 24.2C104.933 25.2133 105.72 26.8267 105.72 29.04C105.72 30.4267 105.373 31.64 104.68 32.68C103.987 33.6933 102.973 34.4 101.64 34.8V34.96C103.347 35.2267 104.72 35.9067 105.76 37C106.8 38.0667 107.32 39.5067 107.32 41.32C107.32 43.8533 106.427 45.7733 104.64 47.08C102.88 48.36 100.507 49 97.52 49H89.88ZM91.72 34.24H96.28C98.9733 34.24 100.907 33.8 102.08 32.92C103.28 32.0133 103.88 30.7867 103.88 29.24C103.88 27.3733 103.253 26.0667 102 25.32C100.747 24.5467 98.9067 24.16 96.48 24.16H91.72V34.24ZM91.72 47.48H97.04C99.6533 47.48 101.72 46.9867 103.24 46C104.76 45.0133 105.52 43.4667 105.52 41.36C105.52 39.4667 104.773 38.0667 103.28 37.16C101.813 36.2267 99.7333 35.76 97.04 35.76H91.72V47.48ZM120.085 49.48C118.458 49.48 116.965 49.08 115.605 48.28C114.272 47.48 113.205 46.3333 112.405 44.84C111.605 43.32 111.205 41.52 111.205 39.44C111.205 37.3333 111.605 35.5333 112.405 34.04C113.205 32.52 114.245 31.36 115.525 30.56C116.805 29.7333 118.152 29.32 119.565 29.32C121.858 29.32 123.658 30.0933 124.965 31.64C126.272 33.1867 126.925 35.3733 126.925 38.2C126.925 38.44 126.912 38.68 126.885 38.92C126.885 39.16 126.858 39.4 126.805 39.64H113.005C113.032 41.24 113.338 42.6667 113.925 43.92C114.538 45.1733 115.378 46.16 116.445 46.88C117.538 47.6 118.805 47.96 120.245 47.96C121.285 47.96 122.218 47.8 123.045 47.48C123.898 47.16 124.685 46.7467 125.405 46.24L126.125 47.6C125.378 48.0533 124.538 48.48 123.605 48.88C122.672 49.28 121.498 49.48 120.085 49.48ZM113.005 38.2H125.245C125.245 35.7467 124.738 33.9067 123.725 32.68C122.712 31.4533 121.338 30.84 119.605 30.84C118.512 30.84 117.485 31.1333 116.525 31.72C115.592 32.3067 114.805 33.1467 114.165 34.24C113.525 35.3333 113.138 36.6533 113.005 38.2ZM147.229 49.48C145.309 49.48 143.602 49.1067 142.109 48.36C140.615 47.6133 139.349 46.6667 138.309 45.52L139.509 44.24C140.469 45.3067 141.615 46.1733 142.949 46.84C144.282 47.48 145.709 47.8 147.229 47.8C149.255 47.8 150.855 47.3067 152.029 46.32C153.202 45.3333 153.789 44.0667 153.789 42.52C153.789 41.4267 153.575 40.5467 153.149 39.88C152.722 39.2133 152.149 38.6667 151.429 38.24C150.735 37.7867 149.949 37.3733 149.069 37L145.069 35.2C144.322 34.8533 143.522 34.4267 142.669 33.92C141.842 33.3867 141.135 32.7067 140.549 31.88C139.989 31.0267 139.709 29.9467 139.709 28.64C139.709 27.36 140.042 26.24 140.709 25.28C141.375 24.2933 142.282 23.5333 143.429 23C144.602 22.44 145.922 22.16 147.389 22.16C148.962 22.16 150.375 22.48 151.629 23.12C152.882 23.7333 153.909 24.4667 154.709 25.32L153.669 26.52C152.895 25.72 151.989 25.08 150.949 24.6C149.909 24.0933 148.722 23.84 147.389 23.84C145.655 23.84 144.242 24.2667 143.149 25.12C142.082 25.9733 141.549 27.12 141.549 28.56C141.549 29.5733 141.789 30.4 142.269 31.04C142.775 31.68 143.375 32.2 144.069 32.6C144.789 33 145.469 33.3467 146.109 33.64L150.109 35.4C151.095 35.8267 152.002 36.3333 152.829 36.92C153.682 37.48 154.362 38.2 154.869 39.08C155.402 39.9333 155.669 41.04 155.669 42.4C155.669 43.7333 155.322 44.9467 154.629 46.04C153.935 47.1067 152.949 47.9467 151.669 48.56C150.415 49.1733 148.935 49.48 147.229 49.48ZM161.008 49V29.8H162.528L162.688 32.76H162.808C163.661 31.7733 164.608 30.96 165.648 30.32C166.715 29.6533 167.781 29.32 168.848 29.32C170.395 29.32 171.581 29.68 172.408 30.4C173.235 31.12 173.821 32.0667 174.168 33.24C175.261 32.04 176.341 31.0933 177.408 30.4C178.501 29.68 179.595 29.32 180.688 29.32C184.528 29.32 186.448 31.7733 186.448 36.68V49H184.648V36.92C184.648 32.92 183.221 30.92 180.368 30.92C178.661 30.92 176.741 32.12 174.608 34.52V49H172.848V36.92C172.848 34.8667 172.501 33.36 171.808 32.4C171.115 31.4133 170.021 30.92 168.528 30.92C166.821 30.92 164.901 32.12 162.768 34.52V49H161.008ZM197.669 49.48C196.149 49.48 194.842 49.0533 193.749 48.2C192.656 47.3467 192.109 46.0133 192.109 44.2C192.109 42.0667 193.109 40.4533 195.109 39.36C197.109 38.24 200.242 37.44 204.509 36.96C204.536 35.9733 204.429 35.0267 204.189 34.12C203.949 33.1867 203.496 32.4133 202.829 31.8C202.189 31.1867 201.229 30.88 199.949 30.88C198.669 30.88 197.496 31.1333 196.429 31.64C195.362 32.1467 194.496 32.64 193.829 33.12L193.029 31.8C193.482 31.48 194.069 31.1333 194.789 30.76C195.509 30.36 196.322 30.0267 197.229 29.76C198.162 29.4667 199.149 29.32 200.189 29.32C201.709 29.32 202.909 29.6533 203.789 30.32C204.669 30.9867 205.296 31.88 205.669 33C206.069 34.0933 206.269 35.3333 206.269 36.72V49H204.749L204.589 46.52H204.469C203.482 47.2933 202.416 47.9867 201.269 48.6C200.122 49.1867 198.922 49.48 197.669 49.48ZM197.989 47.96C199.082 47.96 200.136 47.6933 201.149 47.16C202.189 46.6267 203.309 45.8533 204.509 44.84V38.32C201.869 38.64 199.776 39.0533 198.229 39.56C196.682 40.0667 195.576 40.7067 194.909 41.48C194.242 42.2267 193.909 43.1067 193.909 44.12C193.909 45.5067 194.309 46.4933 195.109 47.08C195.936 47.6667 196.896 47.96 197.989 47.96ZM213.118 49V29.8H214.638L214.798 33.36H214.918C215.558 32.1867 216.331 31.2267 217.238 30.48C218.171 29.7067 219.211 29.32 220.358 29.32C220.731 29.32 221.064 29.3467 221.358 29.4C221.651 29.4533 221.958 29.56 222.278 29.72L221.878 31.32C221.558 31.1867 221.278 31.1067 221.038 31.08C220.798 31.0267 220.491 31 220.118 31C219.264 31 218.358 31.3733 217.398 32.12C216.464 32.84 215.624 34.1067 214.878 35.92V49H213.118ZM231.053 49.48C229.186 49.48 227.919 48.9467 227.253 47.88C226.586 46.7867 226.253 45.3867 226.253 43.68V31.32H223.253V29.96L226.293 29.8L226.533 24.24H228.053V29.8H233.613V31.32H228.053V43.84C228.053 45.0667 228.266 46.0533 228.693 46.8C229.119 47.5467 229.986 47.92 231.293 47.92C231.666 47.92 232.066 47.8667 232.493 47.76C232.946 47.6267 233.346 47.48 233.693 47.32L234.173 48.76C233.613 48.9467 233.039 49.1067 232.453 49.24C231.893 49.4 231.426 49.48 231.053 49.48Z" fill="white"/>
<path d="M35.9507 102.735C30.5357 114.484 19.9542 122.292 8.05615 124.788C11.4591 128.925 15.8805 132.376 21.1465 134.75C39.453 142.95 61.3613 135.191 67.9189 116.466C72.8619 102.392 67.1737 84.0843 57.0144 66.5593C48.4697 51.8247 35.5781 39.146 35.5781 39.146L36.6959 101.022C36.4723 101.609 36.2239 102.172 35.9507 102.76V102.735Z" fill="url(#paint0_linear_1684_3980)"/>
<path d="M35.9508 102.736C36.224 102.173 36.4475 101.586 36.6959 100.998L36.1992 102.075C36.6711 101.023 39.3537 96.0785 40.9186 85.774C43.1542 70.9414 35.603 39 35.603 39C35.603 39 15.8558 65.8749 10.5401 73.6828C7.83265 77.6724 3.28706 87.3405 3.28706 87.3405C-2.6247 100.166 -0.289804 114.582 8.10589 124.765C20.0039 122.268 30.5855 114.46 36.0004 102.712L35.9508 102.736Z" fill="url(#paint1_linear_1684_3980)"/>
<g style="mix-blend-mode:multiply">
<path d="M37.4891 100.02C36.7191 100.95 35.8994 101.88 35.0301 102.761L36.0236 101.757C35.5268 102.296 35.0301 102.859 34.5084 103.373C25.9637 112.062 14.7612 116.712 3.38477 117.251C4.65157 119.943 6.24129 122.513 8.15391 124.838C20.2258 122.317 30.9812 114.363 36.4707 102.443C36.744 101.855 36.9924 101.268 37.2159 100.68L36.6943 101.782C36.9675 101.194 37.2159 100.607 37.4395 100.02H37.4891Z" fill="url(#paint2_linear_1684_3980)"/>
</g>
<g style="mix-blend-mode:multiply">
<path d="M37.3668 100.337C37.193 100.631 37.0439 100.9 36.8452 101.194L37.2923 100.484C37.2923 100.484 37.342 100.386 37.3668 100.337Z" fill="url(#paint3_linear_1684_3980)"/>
<path d="M37.2663 100.582C37.0179 101.022 36.7695 101.438 36.4963 101.879C29.4667 113.015 18.1649 119.918 5.96875 121.851C6.66425 122.879 7.38459 123.907 8.17945 124.862C20.2514 122.341 31.0068 114.386 36.4963 102.466C36.7695 101.879 37.0179 101.291 37.2414 100.704L36.7198 101.805C36.8937 101.389 37.0676 100.998 37.2414 100.582H37.2663Z" fill="url(#paint4_linear_1684_3980)"/>
</g>
<path d="M257.119 105.184C255.977 105.478 254.685 105.772 253.195 106.065C251.705 106.359 250.164 106.628 248.575 106.898C246.985 107.167 245.395 107.412 243.806 107.656C242.216 107.901 240.775 108.097 239.508 108.244C239.583 109.712 239.757 110.985 240.005 112.111C240.278 113.212 240.75 114.167 241.446 114.901C242.141 115.66 243.06 116.223 244.253 116.615C245.445 117.006 246.96 117.178 248.848 117.178C250.736 117.178 252.301 117.031 253.592 116.712C254.884 116.419 255.952 116.076 256.797 115.709C257.641 115.342 258.312 114.999 258.809 114.681C259.305 114.363 259.703 114.191 260.001 114.142C260.547 114.142 260.994 114.289 261.317 114.632C261.64 114.975 261.814 115.44 261.814 115.978C261.814 116.712 261.516 117.422 260.945 118.083C260.373 118.744 259.529 119.331 258.411 119.845C257.318 120.359 256.002 120.751 254.437 121.069C252.872 121.363 251.108 121.534 249.146 121.534C246.861 121.534 244.923 121.363 243.284 121.02C241.669 120.678 240.303 120.164 239.21 119.478C238.117 118.793 237.248 117.961 236.602 116.982C235.956 116.003 235.484 114.901 235.137 113.628C234.789 112.356 234.59 110.961 234.491 109.443C234.392 107.901 234.367 106.261 234.367 104.499C234.367 101.684 234.541 99.1386 234.888 96.8378C235.236 94.5371 235.956 92.579 237.025 90.9635C238.093 89.3481 239.633 88.0998 241.595 87.2187C243.582 86.3375 246.165 85.897 249.394 85.897C251.506 85.897 253.443 86.0928 255.232 86.4844C257.02 86.876 258.56 87.4879 259.877 88.3201C261.193 89.1523 262.236 90.2293 263.006 91.551C263.776 92.8727 264.199 94.4636 264.298 96.3238C264.373 97.6211 264.298 98.747 264.124 99.6771C263.95 100.607 263.578 101.415 263.031 102.125C262.485 102.81 261.74 103.422 260.771 103.911C259.802 104.401 258.585 104.842 257.095 105.209L257.119 105.184ZM250.736 90.0579C248.972 90.0579 247.457 90.2048 246.215 90.4985C244.973 90.7922 243.93 91.2083 243.135 91.7713C242.34 92.3342 241.669 93.0195 241.198 93.8273C240.726 94.635 240.378 95.5651 240.129 96.6175C239.881 97.67 239.732 98.8449 239.657 100.142C239.583 101.439 239.508 102.81 239.484 104.303C240.452 104.156 241.62 103.985 242.961 103.789C244.302 103.593 245.693 103.373 247.134 103.153C248.575 102.932 249.991 102.688 251.382 102.443C252.773 102.198 254.015 101.953 255.108 101.733C256.648 101.39 257.765 100.827 258.461 100.044C259.156 99.261 259.454 98.0861 259.33 96.5196C259.281 95.4672 259.007 94.5615 258.51 93.7538C258.014 92.9461 257.368 92.2853 256.573 91.7468C255.778 91.2083 254.884 90.7922 253.866 90.523C252.847 90.2537 251.804 90.1069 250.736 90.1069V90.0579Z" fill="white"/>
<path d="M345.82 105.184C344.678 105.478 343.386 105.772 341.896 106.065C340.405 106.359 338.865 106.628 337.275 106.898C335.686 107.167 334.096 107.412 332.506 107.656C330.917 107.901 329.476 108.097 328.209 108.244C328.284 109.712 328.458 110.985 328.706 112.111C328.979 113.212 329.451 114.167 330.147 114.901C330.842 115.66 331.761 116.223 332.953 116.615C334.146 117.006 335.661 117.178 337.549 117.178C339.436 117.178 341.001 117.031 342.293 116.712C343.585 116.419 344.653 116.076 345.497 115.709C346.342 115.342 347.012 114.999 347.509 114.681C348.006 114.363 348.403 114.191 348.702 114.142C349.248 114.142 349.695 114.289 350.018 114.632C350.341 114.975 350.515 115.44 350.515 115.978C350.515 116.712 350.217 117.422 349.645 118.083C349.074 118.744 348.23 119.331 347.112 119.845C346.019 120.359 344.702 120.751 343.138 121.069C341.573 121.363 339.809 121.534 337.847 121.534C335.562 121.534 333.624 121.363 331.985 121.02C330.37 120.678 329.004 120.164 327.911 119.478C326.818 118.793 325.949 117.961 325.303 116.982C324.657 116.003 324.185 114.901 323.837 113.628C323.49 112.356 323.291 110.961 323.192 109.443C323.092 107.901 323.067 106.261 323.067 104.499C323.067 101.684 323.241 99.1386 323.589 96.8378C323.937 94.5371 324.657 92.579 325.725 90.9635C326.793 89.3481 328.333 88.0998 330.296 87.2187C332.283 86.3375 334.866 85.897 338.095 85.897C340.207 85.897 342.144 86.0928 343.932 86.4844C345.721 86.876 347.261 87.4879 348.577 88.3201C349.894 89.1523 350.937 90.2293 351.707 91.551C352.477 92.8727 352.899 94.4636 352.999 96.3238C353.073 97.6211 352.999 98.747 352.825 99.6771C352.651 100.607 352.278 101.415 351.732 102.125C351.185 102.81 350.44 103.422 349.472 103.911C348.503 104.401 347.286 104.842 345.795 105.209L345.82 105.184ZM339.436 90.0579C337.673 90.0579 336.158 90.2048 334.916 90.4985C333.674 90.7922 332.631 91.2083 331.836 91.7713C331.041 92.3342 330.37 93.0195 329.898 93.8273C329.426 94.635 329.078 95.5651 328.83 96.6175C328.582 97.67 328.433 98.8449 328.358 100.142C328.284 101.439 328.209 102.81 328.184 104.303C329.153 104.156 330.32 103.985 331.662 103.789C333.003 103.593 334.394 103.373 335.835 103.153C337.275 102.932 338.691 102.688 340.082 102.443C341.473 102.198 342.715 101.953 343.808 101.733C345.348 101.39 346.466 100.827 347.162 100.044C347.857 99.261 348.155 98.0861 348.031 96.5196C347.981 95.4672 347.708 94.5615 347.211 93.7538C346.714 92.9461 346.069 92.2853 345.274 91.7468C344.479 91.2083 343.585 90.7922 342.566 90.523C341.548 90.2537 340.505 90.1069 339.436 90.1069V90.0579Z" fill="white"/>
<path d="M271.874 77.331C271.874 76.0093 273.017 74.8345 274.308 74.8345C275.674 74.8345 276.742 76.0093 276.742 77.331V85.5306H285.958C287.249 85.5306 288.243 86.5586 288.243 87.8803C288.243 89.202 287.249 90.23 285.958 90.23H276.742V111.794C276.742 115.147 278.581 116.958 281.164 116.958C282.455 116.958 283.524 117.986 283.524 119.308C283.524 120.629 282.455 121.657 281.164 121.657C275.153 121.657 271.874 117.521 271.874 111.818V90.2545H268.918C267.626 90.2545 266.633 89.2265 266.633 87.9048C266.633 86.583 267.626 85.555 268.918 85.555H271.874V77.3555V77.331Z" fill="white"/>
<path d="M294.428 85.5313H315.268C316.559 85.5313 317.553 86.5593 317.553 87.881C317.553 88.5908 317.255 89.1293 317.031 89.4475L298.079 116.176H315.64C316.932 116.176 318 117.277 318 118.599C318 119.92 316.932 121.022 315.64 121.022H293.359C292.068 121.022 291.074 119.994 291.074 118.672C291.074 117.962 291.298 117.497 291.596 117.106L310.772 90.2063H294.428C293.136 90.2063 292.142 89.1783 292.142 87.8566C292.142 86.5348 293.136 85.5068 294.428 85.5068V85.5313Z" fill="white"/>
<path d="M364.946 90.8426C366.461 87.2446 370.261 84.5767 375.527 84.5767C376.819 84.5767 377.887 85.6781 377.887 86.9998C377.887 88.3215 376.819 89.4229 375.527 89.4229C368.523 89.4229 364.946 94.4161 364.946 101.612V119.113C364.946 120.508 363.878 121.609 362.511 121.609C361.145 121.609 360.077 120.508 360.077 119.113V87.3669C360.077 85.9473 361.145 84.8704 362.511 84.8704C363.878 84.8704 364.946 85.9718 364.946 87.3669V90.8181V90.8426Z" fill="white"/>
<path d="M215.538 84.2827C209.675 84.2827 206.322 86.7059 204.434 89.7654L203.565 91.9438L202.696 89.7654C200.783 86.7059 197.454 84.2827 191.592 84.2827C179.868 84.2827 177.21 91.4787 177.21 98.1118V118.99C177.21 120.385 178.279 121.487 179.645 121.487C181.011 121.487 182.079 120.385 182.079 118.99V99.1398C182.079 92.9718 184.215 88.7374 191.592 88.7374C198.125 88.7374 201.106 92.3354 201.106 98.1118V118.99C201.106 120.385 202.174 121.487 203.54 121.487C204.906 121.487 205.974 120.385 205.974 118.99V98.1118C205.974 92.3354 208.93 88.7374 215.488 88.7374C222.865 88.7374 225.001 92.9473 225.001 99.1398V118.99C225.001 120.385 226.069 121.487 227.436 121.487C228.802 121.487 229.87 120.385 229.87 118.99V98.1118C229.87 91.4787 227.212 84.2827 215.488 84.2827H215.538Z" fill="white"/>
<path d="M94.1232 72.2144C93.2787 72.2144 92.5584 72.3857 92.0119 72.7284C91.4157 73.0955 91.1177 73.634 91.1177 74.3193V119.674C91.1177 120.359 91.4654 120.849 92.1112 121.093C92.6825 121.289 93.3532 121.411 94.1232 121.411C94.4461 121.411 94.7939 121.411 95.1416 121.363C95.4646 121.338 95.7875 121.24 96.0607 121.118C96.3588 120.995 96.5823 120.824 96.7562 120.604C96.9549 120.383 97.0294 120.065 97.0294 119.698V74.3927C97.0294 73.5116 96.7314 72.9242 96.1352 72.6304C95.6136 72.3612 94.9181 72.2144 94.0984 72.2144H94.1232Z" fill="#00B060"/>
<path d="M125.843 87.2666C125.198 86.875 124.403 86.5568 123.434 86.3121C122.49 86.0673 121.347 85.9204 120.031 85.8715C118.839 85.847 117.622 85.8715 116.38 85.9449C115.138 86.0183 113.921 86.1652 112.703 86.3855C111.511 86.5813 110.368 86.875 109.3 87.2177C108.257 87.5603 107.288 87.9764 106.469 88.466C105.649 88.9555 104.978 89.5184 104.506 90.1303C104.01 90.7667 103.761 91.501 103.761 92.2842V119.673C103.761 120.383 104.109 120.872 104.73 121.093C105.276 121.289 105.947 121.411 106.667 121.411C107.015 121.411 107.338 121.411 107.636 121.362C107.984 121.337 108.282 121.24 108.555 121.117C108.828 120.995 109.052 120.823 109.226 120.603C109.425 120.383 109.499 120.065 109.499 119.698V93.8018C109.499 93.8018 109.549 93.5081 109.822 93.043C110.046 92.7003 110.493 92.3577 111.188 92.015C111.884 91.6723 112.902 91.3542 114.219 91.0849C115.51 90.8157 117.274 90.6688 119.46 90.6688C120.577 90.6688 121.447 90.7422 122.043 90.8891C122.664 91.0604 123.161 91.2318 123.533 91.4031C123.931 91.5989 124.254 91.7702 124.552 91.9171C124.875 92.0884 125.272 92.1863 125.744 92.1863C126.166 92.1863 126.489 92.1129 126.762 91.9905C127.036 91.8681 127.234 91.6723 127.383 91.4521C127.508 91.2318 127.607 91.036 127.657 90.8157C127.706 90.5954 127.731 90.3996 127.731 90.2038C127.731 89.6653 127.582 89.1268 127.259 88.6128C126.936 88.1233 126.464 87.6582 125.819 87.2666H125.843Z" fill="#00B060"/>
<path d="M152.843 87.2666C152.198 86.875 151.403 86.5568 150.434 86.3121C149.49 86.0673 148.347 85.9204 147.031 85.8715C145.839 85.847 144.622 85.8715 143.38 85.9449C142.138 86.0183 140.896 86.1652 139.703 86.3855C138.511 86.5813 137.368 86.875 136.3 87.2177C135.257 87.5603 134.288 87.9764 133.469 88.466C132.649 88.9555 131.978 89.5184 131.506 90.1303C131.01 90.7667 130.761 91.501 130.761 92.2842V119.673C130.761 120.383 131.109 120.872 131.73 121.093C132.276 121.289 132.947 121.411 133.667 121.411C134.015 121.411 134.338 121.411 134.636 121.362C134.984 121.313 135.282 121.24 135.555 121.117C135.828 120.995 136.052 120.823 136.226 120.603C136.425 120.383 136.499 120.065 136.499 119.698V93.8018C136.499 93.8018 136.549 93.5081 136.822 93.043C137.046 92.7003 137.493 92.3577 138.188 92.015C138.884 91.6723 139.902 91.3542 141.219 91.0849C142.51 90.8157 144.274 90.6688 146.46 90.6688C147.577 90.6688 148.447 90.7422 149.043 90.8891C149.664 91.0604 150.161 91.2318 150.533 91.4031C150.931 91.5989 151.254 91.7702 151.552 91.9171C151.875 92.0884 152.272 92.1863 152.744 92.1863C153.166 92.1863 153.489 92.1129 153.762 91.9905C154.036 91.8681 154.234 91.6723 154.383 91.4521C154.508 91.2318 154.607 91.036 154.657 90.8157C154.706 90.5954 154.731 90.3996 154.731 90.2038C154.731 89.6653 154.582 89.1268 154.259 88.6128C153.936 88.1233 153.464 87.6582 152.819 87.2666H152.843Z" fill="#00B060"/>
<path d="M164.94 86.2406C164.394 86.0447 163.748 85.9224 163.003 85.9224C162.68 85.9224 162.332 85.9224 162.034 85.9713C161.686 86.0203 161.388 86.0937 161.14 86.2161C160.842 86.3385 160.618 86.5343 160.444 86.7546C160.27 86.9993 160.171 87.293 160.171 87.6357V119.651C160.171 120.336 160.494 120.825 161.14 121.07C161.711 121.266 162.357 121.388 163.077 121.388C163.375 121.388 163.698 121.388 164.046 121.339C164.394 121.315 164.692 121.217 164.965 121.095C165.238 120.972 165.462 120.801 165.636 120.581C165.834 120.36 165.909 120.042 165.909 119.675V87.6602C165.909 86.9504 165.586 86.4608 164.965 86.2406H164.94Z" fill="#00B060"/>
<path d="M164.94 72.5579C164.394 72.3621 163.748 72.2397 163.003 72.2397C162.68 72.2397 162.332 72.2397 162.009 72.2887C161.662 72.3377 161.364 72.4111 161.09 72.5335C160.792 72.6803 160.569 72.8517 160.42 73.0719C160.246 73.3167 160.146 73.6104 160.146 73.9531V79.3134C160.146 80.0232 160.469 80.5127 161.115 80.733C161.662 80.9288 162.308 81.0512 163.053 81.0512C163.376 81.0512 163.723 81.0512 164.046 81.0022C164.394 80.9533 164.692 80.8798 164.965 80.7575C165.239 80.6106 165.462 80.4637 165.636 80.2435C165.835 80.0232 165.909 79.705 165.909 79.3378V73.9776C165.909 73.2677 165.586 72.7782 164.965 72.5579H164.94Z" fill="#00B060"/>
<defs>
<linearGradient id="paint0_linear_1684_3980" x1="46.6882" y1="24.6081" x2="34.5462" y2="171.244" gradientUnits="userSpaceOnUse">
<stop stop-color="#3ED307"/>
<stop offset="0.13" stop-color="#37CE1E"/>
<stop offset="0.41" stop-color="#26C45A"/>
<stop offset="0.8" stop-color="#0CB3BA"/>
<stop offset="0.98" stop-color="#00ACE7"/>
</linearGradient>
<linearGradient id="paint1_linear_1684_3980" x1="26.9212" y1="128.074" x2="9.62287" y2="14.6581" gradientUnits="userSpaceOnUse">
<stop offset="0.02" stop-color="#0077BF"/>
<stop offset="0.64" stop-color="#02A7E6"/>
<stop offset="1" stop-color="#03BFF9"/>
</linearGradient>
<linearGradient id="paint2_linear_1684_3980" x1="68.2058" y1="92.4076" x2="-12.1262" y2="130.026" gradientUnits="userSpaceOnUse">
<stop stop-color="#42009E"/>
<stop offset="0.11" stop-color="#581EA9"/>
<stop offset="0.55" stop-color="#B195D6"/>
<stop offset="0.86" stop-color="#E9E1F3"/>
<stop offset="1" stop-color="white"/>
</linearGradient>
<linearGradient id="paint3_linear_1684_3980" x1="46.4796" y1="99.2447" x2="-9.3741" y2="108.942" gradientUnits="userSpaceOnUse">
<stop stop-color="#42009E"/>
<stop offset="0.11" stop-color="#581EA9"/>
<stop offset="0.55" stop-color="#B195D6"/>
<stop offset="0.86" stop-color="#E9E1F3"/>
<stop offset="1" stop-color="white"/>
</linearGradient>
<linearGradient id="paint4_linear_1684_3980" x1="48.0858" y1="108.485" x2="-7.76792" y2="118.182" gradientUnits="userSpaceOnUse">
<stop stop-color="#42009E"/>
<stop offset="0.11" stop-color="#581EA9"/>
<stop offset="0.55" stop-color="#B195D6"/>
<stop offset="0.86" stop-color="#E9E1F3"/>
<stop offset="1" stop-color="white"/>
</linearGradient>
</defs>
</svg>
