<svg width="27" height="30" viewBox="0 0 27 30" fill="none" xmlns="http://www.w3.org/2000/svg">
<g clip-path="url(#clip0_759_4153)">
<path d="M26.1885 20.6865C26.2043 20.4568 26.1316 20.2207 25.9646 20.0361C24.5836 18.5057 22.6172 17.5781 20.4299 17.424C18.2479 17.2705 16.149 17.9086 14.5213 19.2211L13.8697 19.7461H11.4258V17.4469C12.3047 17.3004 13.1273 16.9342 13.8281 16.3752C14.376 16.5516 14.9449 16.6412 15.5273 16.6412C18.5965 16.6412 21.0938 14.1439 21.0938 11.0748C21.0938 8.83066 19.7695 6.84316 17.7451 5.96836C17.1047 2.52891 14.1012 0 10.5469 0C6.99258 0 3.98906 2.52891 3.34863 5.96777C1.32422 6.84258 0 8.83008 0 11.0742C0 14.1434 2.49727 16.6406 5.56641 16.6406C6.14883 16.6406 6.71836 16.5516 7.26562 16.3746C7.96641 16.9336 8.78906 17.2998 9.66797 17.4463V19.8967C9.06855 20.1094 8.56875 20.533 8.25703 21.0773L4.62187 19.0436C3.95391 18.6697 3.18223 18.5859 2.44922 18.8074C1.7168 19.0283 1.12031 19.5252 0.770508 20.2066C0.0808593 21.5502 0.571875 23.1814 1.88906 23.9209L11.7176 29.4375C12.3732 29.8055 13.1168 30 13.8686 30H25.3125C25.7982 30 26.1914 29.6068 26.1914 29.1211V20.7422C26.1914 20.7234 26.1896 20.7053 26.1885 20.6865ZM8.0707 14.741C7.90254 14.574 7.67871 14.4861 7.45137 14.4861C7.33184 14.4861 7.21113 14.5107 7.09688 14.5605C6.6123 14.7744 6.09727 14.8828 5.56641 14.8828C3.46641 14.8828 1.75781 13.1742 1.75781 11.0742C1.75781 9.40898 2.82305 7.95059 4.40859 7.44551C4.73965 7.34004 4.97695 7.05 5.01504 6.70488C5.32676 3.88477 7.70508 1.75781 10.5469 1.75781C13.3887 1.75781 15.767 3.88477 16.0787 6.70488C16.1168 7.05 16.3547 7.34004 16.6857 7.44551C18.2707 7.95059 19.3359 9.40957 19.3359 11.0742C19.3359 13.1742 17.6273 14.8828 15.5273 14.8828C14.9965 14.8828 14.4814 14.7744 13.9963 14.5605C13.6658 14.4146 13.2797 14.4861 13.023 14.741C12.573 15.1875 12.024 15.4975 11.4258 15.651V14.1076L15.1131 10.8545C15.477 10.5334 15.5115 9.97793 15.1904 9.61406C14.8693 9.2502 14.3139 9.21562 13.95 9.53672L11.4264 11.7639V8.43809C11.4264 7.95234 11.0326 7.55918 10.5475 7.55918C10.0623 7.55918 9.66855 7.95234 9.66855 8.43809V11.7639L7.14492 9.53672C6.78105 9.21562 6.22559 9.2502 5.90449 9.61406C5.5834 9.97793 5.61797 10.5334 5.98184 10.8545L9.66914 14.1076V15.651C9.0709 15.4975 8.52187 15.1875 8.07187 14.7416L8.0707 14.741ZM13.8686 28.2422C13.4174 28.2422 12.9715 28.1256 12.5777 27.9047L2.74922 22.3881C2.26055 22.1139 2.07832 21.508 2.33437 21.01C2.46445 20.7574 2.68535 20.5729 2.95723 20.4908C3.2291 20.4088 3.51563 20.4398 3.76348 20.5787L7.96758 22.9312C8.22012 24.123 9.28066 25.0201 10.5469 25.0201H16.7578C17.243 25.0201 17.6367 24.627 17.6367 24.1412C17.6367 23.6555 17.243 23.2623 16.7578 23.2623H10.5469C10.0623 23.2623 9.66797 22.868 9.66797 22.3834C9.66797 21.8988 10.0623 21.5045 10.5469 21.5045H14.1797C14.3807 21.5045 14.5752 21.4359 14.7311 21.31L15.624 20.5904C16.9055 19.558 18.5684 19.057 20.3062 19.1783C21.9205 19.2914 23.373 19.9277 24.433 20.9777V28.2428H13.868L13.8686 28.2422Z" fill="url(#paint0_linear_759_4153)"/>
</g>
<defs>
<linearGradient id="paint0_linear_759_4153" x1="-1.30039e-07" y1="29.9318" x2="29.6902" y2="28.8322" gradientUnits="userSpaceOnUse">
<stop stop-color="#00AEEF"/>
<stop offset="0.511623" stop-color="#00AECD"/>
<stop offset="1" stop-color="#00AF89"/>
</linearGradient>
<clipPath id="clip0_759_4153">
<rect width="26.1914" height="30" fill="white"/>
</clipPath>
</defs>
</svg>
