<svg width="37" height="40" viewBox="0 0 37 40" fill="none" xmlns="http://www.w3.org/2000/svg">
<g clip-path="url(#clip0_1450_1161)">
<path d="M22.2531 38.9176C21.7086 39.2806 21.0565 39.4957 20.3573 39.4957H4.00775C2.13212 39.4957 0.612793 37.9764 0.612793 36.1008V3.89911C0.612793 2.02348 2.13212 0.50415 4.00775 0.50415H20.3573C22.233 0.50415 23.7523 2.02348 23.7523 3.89911V22.5411" stroke="url(#paint0_linear_1450_1161)" stroke-width="1.5" stroke-linecap="round" stroke-linejoin="round"/>
<path d="M9.34521 36.2622H15.0192" stroke="url(#paint1_linear_1450_1161)" stroke-width="1.5" stroke-linecap="round" stroke-linejoin="round"/>
<path d="M14.0511 3.73779H9.34521" stroke="url(#paint2_linear_1450_1161)" stroke-width="1.5" stroke-linecap="round" stroke-linejoin="round"/>
<path d="M29.6949 22.4672L35.073 27.8454C36.5722 29.3445 36.5722 31.7714 35.073 33.2639L31.1806 37.1563C30.9386 37.3983 30.6629 37.6067 30.3671 37.7748C29.7957 38.0975 29.1369 38.2252 28.4848 38.2252H27.2949L26.9924 38.2118C26.4949 38.1782 26.0041 38.0504 25.547 37.8487L19.2008 35.0319C18.5755 34.7429 18.1991 34.0706 18.3134 33.3782C18.3671 33.0488 18.5352 32.7462 18.7571 32.5244C19.1268 32.1546 19.6713 31.9798 20.2293 32.1277L24.3033 33.3244L16.8411 25.8622C16.8008 25.8219 16.7604 25.7748 16.7268 25.7277L15.994 24.995C15.4428 24.4437 15.3688 23.5361 15.8932 22.9647C16.4512 22.353 17.3924 22.3395 17.9638 22.9177L22.5621 27.516C21.9369 26.8908 22.0176 25.8219 22.7907 25.3042C23.3621 24.9143 24.1419 25.0353 24.6327 25.5261L25.2377 26.1311L25.0629 25.9496C24.5117 25.3983 24.505 24.484 25.0629 23.9261C25.6276 23.3614 26.5352 23.3681 27.0932 23.9261L27.268 24.1008L27.6646 24.4975C27.5234 24.3563 27.4159 24.195 27.3487 24.0202C27.1403 23.4958 27.2478 22.884 27.6646 22.4672C28.0882 22.0437 28.6999 21.9361 29.2176 22.1513C29.3924 22.2185 29.5537 22.3261 29.6949 22.4672Z" stroke="url(#paint3_linear_1450_1161)" stroke-width="1.5" stroke-linecap="round" stroke-linejoin="round"/>
<path d="M28.7133 25.5463L27.6646 24.4976" stroke="url(#paint4_linear_1450_1161)" stroke-width="1.5" stroke-linecap="round" stroke-linejoin="round"/>
<path d="M26.6831 27.5765L25.231 26.1311" stroke="url(#paint5_linear_1450_1161)" stroke-width="1.5" stroke-linecap="round" stroke-linejoin="round"/>
<path d="M24.6531 29.6133L22.5557 27.5159" stroke="url(#paint6_linear_1450_1161)" stroke-width="1.5" stroke-linecap="round" stroke-linejoin="round"/>
<path d="M16.4376 14.7698H18.125V16.4572C18.125 18.8034 16.2157 20.7126 13.8695 20.7126H12.1821V19.0252C12.1821 16.679 14.0914 14.7698 16.4376 14.7698Z" stroke="url(#paint7_linear_1450_1161)" stroke-width="1.5" stroke-linecap="round" stroke-linejoin="round"/>
<path d="M12.1821 20.7126H10.4947C8.14852 20.7126 6.23927 18.8034 6.23927 16.4572V14.7698H7.92667C10.2729 14.7698 12.1821 16.679 12.1821 19.0253V20.7126Z" stroke="url(#paint8_linear_1450_1161)" stroke-width="1.5" stroke-linecap="round" stroke-linejoin="round"/>
<path d="M12.1821 24.3697V20.7192" stroke="url(#paint9_linear_1450_1161)" stroke-width="1.5" stroke-linecap="round" stroke-linejoin="round"/>
</g>
<defs>
<linearGradient id="paint0_linear_1450_1161" x1="0.612793" y1="39.4072" x2="26.8627" y2="38.7463" gradientUnits="userSpaceOnUse">
<stop stop-color="#00AEEF"/>
<stop offset="0.511623" stop-color="#00AECD"/>
<stop offset="1" stop-color="#00AF89"/>
</linearGradient>
<linearGradient id="paint1_linear_1450_1161" x1="9.34521" y1="37.2599" x2="15.4332" y2="35.7945" gradientUnits="userSpaceOnUse">
<stop stop-color="#00AEEF"/>
<stop offset="0.511623" stop-color="#00AECD"/>
<stop offset="1" stop-color="#00AF89"/>
</linearGradient>
<linearGradient id="paint2_linear_1450_1161" x1="9.34521" y1="4.73552" x2="14.4823" y2="3.70993" gradientUnits="userSpaceOnUse">
<stop stop-color="#00AEEF"/>
<stop offset="0.511623" stop-color="#00AECD"/>
<stop offset="1" stop-color="#00AF89"/>
</linearGradient>
<linearGradient id="paint3_linear_1450_1161" x1="15.5376" y1="38.1885" x2="38.9207" y2="36.9219" gradientUnits="userSpaceOnUse">
<stop stop-color="#00AEEF"/>
<stop offset="0.511623" stop-color="#00AECD"/>
<stop offset="1" stop-color="#00AF89"/>
</linearGradient>
<linearGradient id="paint4_linear_1450_1161" x1="27.6646" y1="25.5439" x2="28.8529" y2="25.4935" gradientUnits="userSpaceOnUse">
<stop stop-color="#00AEEF"/>
<stop offset="0.511623" stop-color="#00AECD"/>
<stop offset="1" stop-color="#00AF89"/>
</linearGradient>
<linearGradient id="paint5_linear_1450_1161" x1="25.231" y1="27.5732" x2="26.8763" y2="27.5031" gradientUnits="userSpaceOnUse">
<stop stop-color="#00AEEF"/>
<stop offset="0.511623" stop-color="#00AECD"/>
<stop offset="1" stop-color="#00AF89"/>
</linearGradient>
<linearGradient id="paint6_linear_1450_1161" x1="22.5557" y1="29.6086" x2="24.9323" y2="29.5078" gradientUnits="userSpaceOnUse">
<stop stop-color="#00AEEF"/>
<stop offset="0.511623" stop-color="#00AECD"/>
<stop offset="1" stop-color="#00AF89"/>
</linearGradient>
<linearGradient id="paint7_linear_1450_1161" x1="12.1821" y1="20.6991" x2="18.916" y2="20.4135" gradientUnits="userSpaceOnUse">
<stop stop-color="#00AEEF"/>
<stop offset="0.511623" stop-color="#00AECD"/>
<stop offset="1" stop-color="#00AF89"/>
</linearGradient>
<linearGradient id="paint8_linear_1450_1161" x1="12.1821" y1="14.7833" x2="5.44828" y2="15.069" gradientUnits="userSpaceOnUse">
<stop stop-color="#00AEEF"/>
<stop offset="0.511623" stop-color="#00AECD"/>
<stop offset="1" stop-color="#00AF89"/>
</linearGradient>
<linearGradient id="paint9_linear_1450_1161" x1="12.1821" y1="24.3614" x2="13.3171" y2="24.3482" gradientUnits="userSpaceOnUse">
<stop stop-color="#00AEEF"/>
<stop offset="0.511623" stop-color="#00AECD"/>
<stop offset="1" stop-color="#00AF89"/>
</linearGradient>
<clipPath id="clip0_1450_1161">
<rect width="36.5916" height="40" fill="white" transform="translate(0.108398)"/>
</clipPath>
</defs>
</svg>
