<svg width="125" height="26" viewBox="0 0 125 26" fill="none" xmlns="http://www.w3.org/2000/svg">
<g clip-path="url(#clip0_935_2228)">
<path d="M13.7602 0.5C9.70255 0.5 6.40138 3.74594 6.40138 7.73575C6.40138 8.7501 6.62358 9.73325 7.02564 10.6332L7.24255 11.0753C8.06255 12.5734 9.44862 13.6034 9.86655 13.8947C11.4219 14.7582 12.4747 16.3968 12.4747 18.2695C12.4747 21.042 10.1787 23.2944 7.36422 23.2944C4.54977 23.2944 2.25376 21.0368 2.25376 18.2695C2.25376 15.5021 4.54977 13.2445 7.36422 13.2445C7.66577 13.2445 7.96203 13.2757 8.253 13.3277C7.49648 12.6047 6.96745 11.8296 6.59184 11.0857C2.89918 11.4655 0.00537109 14.5397 0.00537109 18.2747C0.00537109 22.2645 3.30654 25.5104 7.36422 25.5104C10.0306 25.5104 12.3636 24.1059 13.6544 22.0148C14.8342 19.7572 14.7654 17.8585 14.4903 16.5997C14.2999 15.731 13.9877 15.0807 13.7708 14.7114C13.7708 14.7114 13.7708 14.7114 13.7708 14.7166C13.3423 13.9727 12.7815 13.3121 12.1202 12.7607C11.6811 12.3862 11.3108 12.1521 11.168 12.0689C9.61791 11.1638 8.65507 9.50957 8.65507 7.74095C8.65507 4.96837 10.9458 2.71598 13.7655 2.71598C16.5853 2.71598 18.876 4.97357 18.876 7.74095C18.876 9.50957 17.9132 11.1638 16.3631 12.0689C16.2202 12.1521 15.8499 12.3862 15.4108 12.7607C14.9294 13.1665 14.5009 13.6346 14.1411 14.1444C14.5591 14.8727 15.014 15.9078 15.178 17.1823C15.4955 15.7778 16.416 14.5918 17.6539 13.9051C18.0719 13.619 19.4579 12.5891 20.2779 11.0857L20.4948 10.6436C20.8969 9.74365 21.1191 8.75531 21.1191 7.74615C21.1191 3.75635 17.8179 0.510404 13.7602 0.510404V0.5Z" fill="white"/>
<path d="M20.955 11.0806C20.5847 11.8244 20.0503 12.5995 19.2991 13.3174C19.5795 13.2705 19.8652 13.2393 20.1614 13.2393C22.9812 13.2393 25.2719 15.4969 25.2719 18.2643C25.2719 21.0317 22.9759 23.2893 20.1614 23.2893C17.7067 23.2893 15.6594 21.5831 15.1621 19.3151C15.0298 20.267 14.7124 21.3074 14.1357 22.405C15.4689 24.2724 17.6697 25.5 20.1561 25.5C24.2138 25.5 27.515 22.2541 27.515 18.2643C27.515 14.5398 24.6371 11.4707 20.9497 11.0806H20.955Z" fill="white"/>
<path d="M70.5677 17.2966C70.0598 17.4318 69.4673 17.5671 68.7954 17.6971C68.1236 17.8272 67.4252 17.952 66.711 18.0717C65.9916 18.1913 65.2774 18.3058 64.5632 18.4098C63.849 18.5138 63.2035 18.6023 62.6216 18.6751C62.6534 19.3305 62.7274 19.9131 62.8491 20.4125C62.9708 20.9119 63.1877 21.3332 63.4998 21.6713C63.8119 22.0095 64.2299 22.2643 64.7695 22.436C65.3038 22.6077 65.9915 22.6961 66.838 22.6961C67.6845 22.6961 68.3934 22.6285 68.9753 22.4932C69.5572 22.358 70.0387 22.2071 70.4196 22.0407C70.8005 21.8742 71.102 21.7182 71.3295 21.5777C71.5517 21.4373 71.7316 21.354 71.8638 21.3332C72.1072 21.3228 72.3082 21.3956 72.4616 21.5517C72.6151 21.7078 72.6891 21.9106 72.6891 22.1603C72.6891 22.4932 72.5569 22.8105 72.2923 23.107C72.0278 23.4036 71.6469 23.6688 71.1549 23.8977C70.6629 24.1266 70.0651 24.3087 69.3615 24.4439C68.6579 24.5792 67.8643 24.6468 66.9808 24.6468C65.9545 24.6468 65.071 24.5688 64.341 24.4127C63.6109 24.2567 62.9972 24.0226 62.5052 23.7157C62.0132 23.4088 61.6217 23.0342 61.3361 22.5973C61.0504 22.1603 60.8282 21.6557 60.6748 21.0887C60.5213 20.5217 60.4261 19.8923 60.3838 19.2005C60.3415 18.5138 60.3256 17.77 60.3203 16.9793C60.3203 15.7152 60.3997 14.5708 60.5584 13.5357C60.7171 12.5005 61.0345 11.6214 61.5212 10.8983C62.0026 10.1753 62.6904 9.6135 63.5792 9.21296C64.4679 8.81762 65.6424 8.61995 67.0972 8.61475C68.0442 8.61475 68.9171 8.70318 69.7212 8.88004C70.5254 9.0569 71.2237 9.3326 71.8215 9.70713C72.4193 10.0817 72.8901 10.5654 73.234 11.1636C73.5779 11.7567 73.7736 12.4745 73.816 13.3068C73.8477 13.8894 73.816 14.394 73.7419 14.8101C73.6625 15.2263 73.4985 15.5904 73.2552 15.9077C73.0118 16.2198 72.6732 16.4851 72.2394 16.7036C71.8056 16.9221 71.2554 17.1145 70.5783 17.281L70.5677 17.2966ZM67.695 10.4874C66.9015 10.4874 66.2243 10.555 65.6636 10.6851C65.1028 10.8151 64.6372 11.0076 64.2722 11.2573C63.9072 11.507 63.6162 11.8139 63.3993 12.1832C63.1877 12.5473 63.0237 12.9687 62.9179 13.442C62.8121 13.9154 62.738 14.446 62.7063 15.0234C62.6745 15.6008 62.6428 16.225 62.6216 16.8961C63.0607 16.8336 63.5845 16.7556 64.1875 16.6672C64.7959 16.5787 65.4202 16.4799 66.0656 16.3759C66.711 16.2718 67.3512 16.1626 67.9754 16.0534C68.605 15.9441 69.1605 15.8349 69.6525 15.7309C70.3455 15.5748 70.8481 15.3199 71.1655 14.9714C71.4829 14.6229 71.6152 14.0923 71.5623 13.3848C71.5411 12.9167 71.4194 12.5005 71.1972 12.1416C70.975 11.7827 70.6841 11.481 70.3243 11.2365C69.9699 10.992 69.5625 10.8047 69.1076 10.6799C68.6526 10.555 68.1817 10.4926 67.695 10.4926V10.4874Z" fill="white"/>
<path d="M110.547 17.2966C110.039 17.4318 109.446 17.5671 108.774 17.6971C108.103 17.8272 107.404 17.952 106.69 18.0717C105.971 18.1913 105.256 18.3058 104.542 18.4098C103.828 18.5138 103.183 18.6023 102.601 18.6751C102.632 19.3305 102.706 19.9131 102.828 20.4125C102.95 20.9119 103.167 21.3332 103.479 21.6713C103.791 22.0095 104.209 22.2643 104.748 22.436C105.283 22.6077 105.971 22.6961 106.817 22.6961C107.663 22.6961 108.372 22.6285 108.954 22.4932C109.536 22.358 110.018 22.2071 110.399 22.0407C110.779 21.8742 111.081 21.7182 111.308 21.5777C111.531 21.4373 111.711 21.354 111.843 21.3332C112.086 21.3228 112.287 21.3956 112.441 21.5517C112.594 21.7078 112.668 21.9106 112.668 22.1603C112.668 22.4932 112.536 22.8105 112.271 23.107C112.007 23.4036 111.626 23.6688 111.134 23.8977C110.642 24.1266 110.044 24.3087 109.34 24.4439C108.637 24.5792 107.843 24.6468 106.96 24.6468C105.934 24.6468 105.05 24.5688 104.32 24.4127C103.59 24.2567 102.976 24.0226 102.484 23.7157C101.992 23.4088 101.601 23.0342 101.315 22.5973C101.029 22.1603 100.807 21.6557 100.654 21.0887C100.5 20.5217 100.405 19.8923 100.363 19.2005C100.32 18.5138 100.305 17.77 100.299 16.9793C100.299 15.7152 100.379 14.5708 100.537 13.5357C100.696 12.5005 101.014 11.6214 101.5 10.8983C101.982 10.1753 102.669 9.6135 103.558 9.21296C104.447 8.81762 105.621 8.61995 107.076 8.61475C108.023 8.61475 108.896 8.70318 109.7 8.88004C110.504 9.0569 111.203 9.3326 111.801 9.70713C112.398 10.0817 112.869 10.5654 113.213 11.1636C113.557 11.7567 113.753 12.4745 113.795 13.3068C113.827 13.8894 113.795 14.394 113.721 14.8101C113.642 15.2263 113.478 15.5904 113.234 15.9077C112.991 16.2198 112.652 16.4851 112.218 16.7036C111.785 16.9221 111.234 17.1145 110.557 17.281L110.547 17.2966ZM107.669 10.4874C106.875 10.4874 106.198 10.555 105.637 10.6851C105.076 10.8151 104.611 11.0076 104.246 11.2573C103.881 11.507 103.59 11.8139 103.373 12.1832C103.161 12.5473 102.997 12.9687 102.892 13.442C102.786 13.9154 102.712 14.446 102.68 15.0234C102.648 15.6008 102.616 16.225 102.595 16.8961C103.034 16.8336 103.558 16.7556 104.161 16.6672C104.77 16.5787 105.394 16.4799 106.039 16.3759C106.685 16.2718 107.325 16.1626 107.949 16.0534C108.579 15.9441 109.134 15.8349 109.626 15.7309C110.319 15.5748 110.822 15.3199 111.139 14.9714C111.457 14.6229 111.589 14.0923 111.536 13.3848C111.515 12.9167 111.393 12.5005 111.171 12.1416C110.949 11.7827 110.658 11.481 110.298 11.2365C109.944 10.992 109.536 10.8047 109.081 10.6799C108.626 10.555 108.155 10.4926 107.669 10.4926V10.4874Z" fill="white"/>
<path d="M77.2177 4.76031C77.2177 4.1621 77.7309 3.63672 78.3128 3.63672C78.9318 3.63672 79.4079 4.1621 79.4079 4.76031V8.45361H83.5608C84.1428 8.45361 84.5872 8.91137 84.5872 9.50959C84.5872 10.1078 84.1428 10.5656 83.5608 10.5656H79.4079V20.267C79.4079 21.7807 80.2332 22.587 81.3971 22.587C81.979 22.587 82.4604 23.0448 82.4604 23.643C82.4604 24.2412 81.979 24.6989 81.3971 24.6989C78.6884 24.6989 77.2124 22.8367 77.2124 20.267V10.5656H75.874C75.292 10.5656 74.8477 10.1078 74.8477 9.50959C74.8477 8.91137 75.292 8.45361 75.874 8.45361H77.2124V4.76031H77.2177Z" fill="white"/>
<path d="M87.391 8.44856H96.7866C97.3685 8.44856 97.8129 8.90632 97.8129 9.50453C97.8129 9.82184 97.6754 10.0663 97.5749 10.2068L89.0363 22.2282H96.9559C97.5378 22.2282 98.0192 22.7224 98.0192 23.3206C98.0192 23.9188 97.5378 24.4078 96.9559 24.4078H86.9095C86.3276 24.4078 85.8779 23.95 85.8779 23.3518C85.8779 23.0345 85.9784 22.8264 86.116 22.6496L94.7551 10.5553H87.3857C86.8037 10.5553 86.3594 10.0975 86.3594 9.49933C86.3594 8.90112 86.8037 8.44336 87.3857 8.44336L87.391 8.44856Z" fill="white"/>
<path d="M119.17 10.841C119.857 9.22328 121.572 8.02686 123.936 8.02686C124.518 8.02686 125 8.52103 125 9.11924C125 9.71745 124.518 10.2064 123.936 10.2064C120.783 10.2064 119.17 12.4588 119.17 15.6892V23.5647C119.17 24.1993 118.688 24.6883 118.075 24.6883C117.461 24.6883 116.979 24.1941 116.979 23.5647V9.2909C116.979 8.65628 117.461 8.1673 118.075 8.1673C118.688 8.1673 119.17 8.66148 119.17 9.2909V10.8358V10.841Z" fill="white"/>
<path d="M51.8239 7.88672C49.184 7.88672 47.6763 8.9791 46.8192 10.3472L46.433 11.3251L46.0468 10.3472C45.1898 8.9739 43.6821 7.88672 41.0422 7.88672C35.7624 7.88672 34.5615 11.1223 34.5615 14.1081V23.4974C34.5615 24.132 35.0429 24.621 35.6566 24.621C36.2703 24.621 36.7517 24.1268 36.7517 23.4974V14.5659C36.7517 11.7881 37.7093 9.88942 41.0369 9.88942C43.9836 9.88942 45.3221 11.5072 45.3221 14.1081V23.4974C45.3221 24.132 45.8035 24.621 46.4172 24.621C46.4172 24.621 46.4225 24.621 46.4277 24.621C46.4277 24.621 46.433 24.621 46.4383 24.621C47.0573 24.621 47.5334 24.1268 47.5334 23.4974V14.1081C47.5334 11.5072 48.8719 9.88942 51.8186 9.88942C55.1462 9.88942 56.1038 11.7881 56.1038 14.5659V23.4974C56.1038 24.132 56.5852 24.621 57.1989 24.621C57.8125 24.621 58.294 24.1268 58.294 23.4974V14.1081C58.294 11.1223 57.0931 7.88672 51.8133 7.88672H51.8239Z" fill="white"/>
</g>
<defs>
<clipPath id="clip0_935_2228">
<rect width="125" height="25" fill="white" transform="translate(0 0.5)"/>
</clipPath>
</defs>
</svg>
