<svg width="42" height="42" viewBox="0 0 42 42" fill="none" xmlns="http://www.w3.org/2000/svg">
<g clip-path="url(#clip0_1450_339)">
<path d="M34.0365 20.1036C34.0365 25.2636 30.9447 29.6965 26.5118 31.6659V37.0942C26.5118 38.3577 25.4882 39.3883 24.2177 39.3883H18.5918C17.3282 39.3883 16.2977 38.3648 16.2977 37.0942V31.6659C11.8647 29.7036 8.77295 25.2636 8.77295 20.1036C8.77295 13.1295 14.4271 7.47534 21.4012 7.47534C28.3753 7.47534 34.0294 13.1295 34.0294 20.1036H34.0365Z" stroke="url(#paint0_linear_1450_339)" stroke-width="1.5" stroke-linecap="round" stroke-linejoin="round"/>
<path d="M19.1914 39.3882H23.6173V39.7341C23.6173 40.6941 22.8408 41.4705 21.8808 41.4705H20.9279C19.9679 41.4705 19.1914 40.6941 19.1914 39.7341V39.3882Z" stroke="url(#paint1_linear_1450_339)" stroke-width="1.5" stroke-linecap="round" stroke-linejoin="round"/>
<path d="M26.5115 31.6658H16.2974" stroke="url(#paint2_linear_1450_339)" stroke-width="1.5" stroke-linecap="round" stroke-linejoin="round"/>
<path d="M15.2031 34.0447H27.6055" stroke="url(#paint3_linear_1450_339)" stroke-width="1.5" stroke-linecap="round" stroke-linejoin="round"/>
<path d="M15.2031 36.7129H27.6055" stroke="url(#paint4_linear_1450_339)" stroke-width="1.5" stroke-linecap="round" stroke-linejoin="round"/>
<path d="M38.6807 20.4988H41.3701" stroke="url(#paint5_linear_1450_339)" stroke-width="1.5" stroke-linecap="round" stroke-linejoin="round"/>
<path d="M1.43848 20.4988H4.12789" stroke="url(#paint6_linear_1450_339)" stroke-width="1.5" stroke-linecap="round" stroke-linejoin="round"/>
<path d="M33.6196 8.27991L35.5255 6.37402" stroke="url(#paint7_linear_1450_339)" stroke-width="1.5" stroke-linecap="round" stroke-linejoin="round"/>
<path d="M7.2832 34.6163L9.18909 32.7104" stroke="url(#paint8_linear_1450_339)" stroke-width="1.5" stroke-linecap="round" stroke-linejoin="round"/>
<path d="M21.4077 3.21871V0.529297" stroke="url(#paint9_linear_1450_339)" stroke-width="1.5" stroke-linecap="round" stroke-linejoin="round"/>
<path d="M9.18909 8.27991L7.2832 6.37402" stroke="url(#paint10_linear_1450_339)" stroke-width="1.5" stroke-linecap="round" stroke-linejoin="round"/>
<path d="M35.5255 34.6163L33.6196 32.7104" stroke="url(#paint11_linear_1450_339)" stroke-width="1.5" stroke-linecap="round" stroke-linejoin="round"/>
<path d="M21.0877 12.8534L21.4122 12.529L21.7366 12.8535C23.5032 14.6207 23.5027 17.4857 21.7355 19.2524L21.411 19.5767L21.0866 19.2523C19.32 17.485 19.3205 14.62 21.0877 12.8534Z" stroke="url(#paint12_linear_1450_339)" stroke-width="1.5" stroke-linecap="round" stroke-linejoin="round"/>
<path d="M26.0035 18.9812H26.4694V19.4471C26.4694 21.9812 24.4082 24.0424 21.8741 24.0424H21.4082V23.5765C21.4082 21.0424 23.4694 18.9812 26.0035 18.9812Z" stroke="url(#paint13_linear_1450_339)" stroke-width="1.5" stroke-linecap="round" stroke-linejoin="round"/>
<path d="M21.4009 24.0425H20.935C18.4009 24.0425 16.3397 21.9813 16.3397 19.4472V18.9813H16.8056C19.3397 18.9813 21.4009 21.0425 21.4009 23.5766V24.0425Z" stroke="url(#paint14_linear_1450_339)" stroke-width="1.5" stroke-linecap="round" stroke-linejoin="round"/>
<path d="M21.4082 28.073V19.5742" stroke="url(#paint15_linear_1450_339)" stroke-width="1.5" stroke-linecap="round" stroke-linejoin="round"/>
<path d="M27.2318 31.666H15.5776C16.3118 29.5907 18.6412 28.0801 21.4082 28.0801C24.1753 28.0801 26.5047 29.5977 27.2388 31.666H27.2318Z" stroke="url(#paint16_linear_1450_339)" stroke-width="1.5" stroke-linecap="round" stroke-linejoin="round"/>
</g>
<defs>
<linearGradient id="paint0_linear_1450_339" x1="8.77295" y1="39.3158" x2="37.4183" y2="38.3537" gradientUnits="userSpaceOnUse">
<stop stop-color="#00AEEF"/>
<stop offset="0.511623" stop-color="#00AECD"/>
<stop offset="1" stop-color="#00AF89"/>
</linearGradient>
<linearGradient id="paint1_linear_1450_339" x1="19.1914" y1="41.4658" x2="24.1749" y2="41.0164" gradientUnits="userSpaceOnUse">
<stop stop-color="#00AEEF"/>
<stop offset="0.511623" stop-color="#00AECD"/>
<stop offset="1" stop-color="#00AF89"/>
</linearGradient>
<linearGradient id="paint2_linear_1450_339" x1="16.2974" y1="32.6635" x2="26.0589" y2="28.4336" gradientUnits="userSpaceOnUse">
<stop stop-color="#00AEEF"/>
<stop offset="0.511623" stop-color="#00AECD"/>
<stop offset="1" stop-color="#00AF89"/>
</linearGradient>
<linearGradient id="paint3_linear_1450_339" x1="15.2031" y1="35.0424" x2="26.229" y2="29.241" gradientUnits="userSpaceOnUse">
<stop stop-color="#00AEEF"/>
<stop offset="0.511623" stop-color="#00AECD"/>
<stop offset="1" stop-color="#00AF89"/>
</linearGradient>
<linearGradient id="paint4_linear_1450_339" x1="15.2031" y1="37.7106" x2="26.229" y2="31.9092" gradientUnits="userSpaceOnUse">
<stop stop-color="#00AEEF"/>
<stop offset="0.511623" stop-color="#00AECD"/>
<stop offset="1" stop-color="#00AF89"/>
</linearGradient>
<linearGradient id="paint5_linear_1450_339" x1="38.6807" y1="21.4965" x2="41.6943" y2="21.1527" gradientUnits="userSpaceOnUse">
<stop stop-color="#00AEEF"/>
<stop offset="0.511623" stop-color="#00AECD"/>
<stop offset="1" stop-color="#00AF89"/>
</linearGradient>
<linearGradient id="paint6_linear_1450_339" x1="1.43848" y1="21.4965" x2="4.4521" y2="21.1527" gradientUnits="userSpaceOnUse">
<stop stop-color="#00AEEF"/>
<stop offset="0.511623" stop-color="#00AECD"/>
<stop offset="1" stop-color="#00AF89"/>
</linearGradient>
<linearGradient id="paint7_linear_1450_339" x1="33.6196" y1="8.27558" x2="35.7792" y2="8.18396" gradientUnits="userSpaceOnUse">
<stop stop-color="#00AEEF"/>
<stop offset="0.511623" stop-color="#00AECD"/>
<stop offset="1" stop-color="#00AF89"/>
</linearGradient>
<linearGradient id="paint8_linear_1450_339" x1="7.2832" y1="34.612" x2="9.44276" y2="34.5204" gradientUnits="userSpaceOnUse">
<stop stop-color="#00AEEF"/>
<stop offset="0.511623" stop-color="#00AECD"/>
<stop offset="1" stop-color="#00AF89"/>
</linearGradient>
<linearGradient id="paint9_linear_1450_339" x1="21.4077" y1="3.2126" x2="22.5426" y2="3.1947" gradientUnits="userSpaceOnUse">
<stop stop-color="#00AEEF"/>
<stop offset="0.511623" stop-color="#00AECD"/>
<stop offset="1" stop-color="#00AF89"/>
</linearGradient>
<linearGradient id="paint10_linear_1450_339" x1="7.2832" y1="8.27558" x2="9.44276" y2="8.18396" gradientUnits="userSpaceOnUse">
<stop stop-color="#00AEEF"/>
<stop offset="0.511623" stop-color="#00AECD"/>
<stop offset="1" stop-color="#00AF89"/>
</linearGradient>
<linearGradient id="paint11_linear_1450_339" x1="33.6196" y1="34.612" x2="35.7792" y2="34.5204" gradientUnits="userSpaceOnUse">
<stop stop-color="#00AEEF"/>
<stop offset="0.511623" stop-color="#00AECD"/>
<stop offset="1" stop-color="#00AF89"/>
</linearGradient>
<linearGradient id="paint12_linear_1450_339" x1="21.403" y1="19.5687" x2="25.2272" y2="15.4071" gradientUnits="userSpaceOnUse">
<stop stop-color="#00AEEF"/>
<stop offset="0.511623" stop-color="#00AECD"/>
<stop offset="1" stop-color="#00AF89"/>
</linearGradient>
<linearGradient id="paint13_linear_1450_339" x1="21.4082" y1="24.0309" x2="27.143" y2="23.7876" gradientUnits="userSpaceOnUse">
<stop stop-color="#00AEEF"/>
<stop offset="0.511623" stop-color="#00AECD"/>
<stop offset="1" stop-color="#00AF89"/>
</linearGradient>
<linearGradient id="paint14_linear_1450_339" x1="21.4009" y1="18.9928" x2="15.6661" y2="19.2361" gradientUnits="userSpaceOnUse">
<stop stop-color="#00AEEF"/>
<stop offset="0.511623" stop-color="#00AECD"/>
<stop offset="1" stop-color="#00AF89"/>
</linearGradient>
<linearGradient id="paint15_linear_1450_339" x1="21.4082" y1="28.0537" x2="22.5433" y2="28.0481" gradientUnits="userSpaceOnUse">
<stop stop-color="#00AEEF"/>
<stop offset="0.511623" stop-color="#00AECD"/>
<stop offset="1" stop-color="#00AF89"/>
</linearGradient>
<linearGradient id="paint16_linear_1450_339" x1="15.5776" y1="31.6578" x2="28.5674" y2="29.8657" gradientUnits="userSpaceOnUse">
<stop stop-color="#00AEEF"/>
<stop offset="0.511623" stop-color="#00AECD"/>
<stop offset="1" stop-color="#00AF89"/>
</linearGradient>
<clipPath id="clip0_1450_339">
<rect width="40.9906" height="42" fill="white" transform="translate(0.90918)"/>
</clipPath>
</defs>
</svg>
