<svg width="21" height="20" viewBox="0 0 21 20" fill="none" xmlns="http://www.w3.org/2000/svg">
<g clip-path="url(#clip0_1530_2261)">
<path d="M5.65625 9.3086C6.57813 8.94532 7.57813 8.75001 8.625 8.75001H12.375C12.7188 8.75001 13 9.03126 13 9.37501C13 9.71876 12.7188 10 12.375 10H8.625C7.5 10 6.4375 10.2695 5.5 10.75C5.56641 13.7969 8.05859 16.25 11.125 16.25H11.1562C15.4141 16.2305 19.25 11.9336 19.25 6.1172C19.25 5.21876 19.1563 4.35157 18.9805 3.52735C17.9805 4.44142 16.6484 5.00001 15.1875 5.00001H11.125C8.47266 5.00001 6.24609 6.83595 5.65625 9.3086ZM4.27734 10.0117C4.58984 6.50001 7.53516 3.75001 11.125 3.75001H15.1875C16.5625 3.75001 17.7891 3.1172 18.5938 2.1211L18.6172 2.08985C18.707 1.97657 18.7891 1.86329 18.8672 1.7422C18.9297 1.64454 18.9922 1.54298 19.0469 1.43751C19.1836 1.1836 19.5781 1.17189 19.6797 1.44142C19.7305 1.57814 19.7773 1.71485 19.8242 1.85548C19.8711 1.9961 19.9141 2.13282 19.957 2.27735L19.9727 2.33595C20.3164 3.51954 20.5 4.78907 20.5 6.1172C20.5 12.3867 16.3242 17.4727 11.1641 17.5H11.125C7.63281 17.5 4.75 14.8945 4.30859 11.5234C2.74609 12.7852 1.75 14.7149 1.75 16.875V18.125C1.75 18.4688 1.46875 18.75 1.125 18.75C0.78125 18.75 0.5 18.4688 0.5 18.125V16.875C0.5 13.9883 2.00781 11.4492 4.27734 10.0117Z" fill="url(#paint0_linear_1530_2261)"/>
</g>
<defs>
<linearGradient id="paint0_linear_1530_2261" x1="0.5" y1="18.7102" x2="23.1496" y2="17.6125" gradientUnits="userSpaceOnUse">
<stop stop-color="#00AEEF"/>
<stop offset="0.511623" stop-color="#00AECD"/>
<stop offset="1" stop-color="#00AF89"/>
</linearGradient>
<clipPath id="clip0_1530_2261">
<rect width="20" height="20" fill="white" transform="translate(0.5)"/>
</clipPath>
</defs>
</svg>
