<svg width="16" height="20" viewBox="0 0 16 20" fill="none" xmlns="http://www.w3.org/2000/svg">
<g clip-path="url(#clip0_1530_2253)">
<path d="M14.25 7.5C14.25 4.04687 11.4531 1.25 8 1.25C4.54687 1.25 1.75 4.04687 1.75 7.5C1.75 8.28906 2.10547 9.39844 2.78516 10.7305C3.44531 12.0273 4.34375 13.3945 5.26172 14.6563C6.17578 15.9141 7.09375 17.0391 7.78125 17.8555C7.85547 17.9453 7.92969 18.0313 8 18.1133C8.07031 18.0313 8.14063 17.9453 8.21875 17.8555C8.91016 17.043 9.82422 15.9141 10.7383 14.6563C11.6563 13.3945 12.5508 12.0273 13.2148 10.7305C13.8945 9.39844 14.25 8.28906 14.25 7.5ZM15.5 7.5C15.5 10.9688 10.7852 16.793 8.83203 19.0586C8.32031 19.6523 8 20 8 20C8 20 7.67969 19.6523 7.16797 19.0586C5.21484 16.793 0.5 10.9688 0.5 7.5C0.5 3.35938 3.85938 0 8 0C12.1406 0 15.5 3.35938 15.5 7.5ZM6.125 7.5C6.125 7.99728 6.32254 8.47419 6.67417 8.82583C7.02581 9.17746 7.50272 9.375 8 9.375C8.49728 9.375 8.97419 9.17746 9.32583 8.82583C9.67746 8.47419 9.875 7.99728 9.875 7.5C9.875 7.00272 9.67746 6.52581 9.32583 6.17417C8.97419 5.82254 8.49728 5.625 8 5.625C7.50272 5.625 7.02581 5.82254 6.67417 6.17417C6.32254 6.52581 6.125 7.00272 6.125 7.5ZM8 10.625C7.1712 10.625 6.37634 10.2958 5.79029 9.70971C5.20424 9.12366 4.875 8.3288 4.875 7.5C4.875 6.6712 5.20424 5.87634 5.79029 5.29029C6.37634 4.70424 7.1712 4.375 8 4.375C8.8288 4.375 9.62366 4.70424 10.2097 5.29029C10.7958 5.87634 11.125 6.6712 11.125 7.5C11.125 8.3288 10.7958 9.12366 10.2097 9.70971C9.62366 10.2958 8.8288 10.625 8 10.625Z" fill="url(#paint0_linear_1530_2253)"/>
</g>
<defs>
<linearGradient id="paint0_linear_1530_2253" x1="0.5" y1="19.9546" x2="17.5099" y2="19.4133" gradientUnits="userSpaceOnUse">
<stop stop-color="#00AEEF"/>
<stop offset="0.511623" stop-color="#00AECD"/>
<stop offset="1" stop-color="#00AF89"/>
</linearGradient>
<clipPath id="clip0_1530_2253">
<rect width="15" height="20" fill="white" transform="translate(0.5)"/>
</clipPath>
</defs>
</svg>
