<svg width="17" height="16" viewBox="0 0 17 16" fill="none" xmlns="http://www.w3.org/2000/svg">
<g clip-path="url(#clip0_771_4228)">
<path d="M13.5001 3.5C12.7314 3.5 12.0314 3.2125 11.5001 2.7375V4.07812V5.09375V5.50313C11.5001 5.77813 11.2751 6.00313 11.0001 6.00313C10.7251 6.00313 10.5001 5.77813 10.5001 5.50313V5.00313C9.2095 5.00313 7.91575 5.45625 6.93762 6.35938L6.90013 6.39375L6.8595 6.425C5.64075 7.34063 5.03137 8.29688 4.422 9.3L4.33137 9.44687C3.75012 10.4125 3.09387 11.4937 1.85012 12.3594C1.70325 12.4656 1.60012 12.6031 1.54387 12.7563C1.4095 13.125 1.60012 13.6219 2.16575 13.7969L2.20637 13.8094L2.24387 13.825C2.24387 13.825 2.24387 13.825 2.247 13.825L2.26575 13.8313C2.2845 13.8375 2.31575 13.85 2.35637 13.8656C2.44075 13.8969 2.56887 13.9406 2.73762 13.9969C3.07825 14.1062 3.58137 14.2531 4.22512 14.4031C5.5095 14.7 7.34075 15 9.50012 15C11.7939 15 13.2626 14.0781 14.1783 12.9625C15.1251 11.8062 15.5001 10.4188 15.5001 9.5375C15.5001 8.4 15.0314 7.25 14.0658 6.35625C13.6033 5.92812 13.072 5.60313 12.5001 5.37813V4.375C12.6251 4.40625 12.7501 4.43437 12.8783 4.45312C13.5564 4.72188 14.1907 5.1125 14.7439 5.62187C15.9157 6.70312 16.5001 8.12188 16.5001 9.5375C16.5001 11.7469 14.7032 16 9.50012 16C5.00012 16 1.872 14.7531 1.872 14.7531C0.822 14.4313 0.25325 13.3875 0.60325 12.4187C0.731375 12.0594 0.972 11.7594 1.272 11.5437C2.34387 10.8 2.90012 9.88125 3.497 8.89688C4.14075 7.83438 4.82825 6.69687 6.2595 5.62187C7.42825 4.54062 8.96575 4 10.5001 4V0.5C10.5001 0.225 10.7251 0 11.0001 0H11.7501H13.647C15.222 0 16.5001 1.27813 16.5001 2.85313C16.5001 3.20938 16.2095 3.5 15.8532 3.5H15.2501H13.5001ZM14.0001 10C14.0001 11.9344 12.4345 13.5 10.5001 13.5C10.2251 13.5 10.0001 13.275 10.0001 13C10.0001 12.725 10.2251 12.5 10.5001 12.5C11.8814 12.5 13.0001 11.3813 13.0001 10C13.0001 9.725 13.2251 9.5 13.5001 9.5C13.7751 9.5 14.0001 9.725 14.0001 10ZM11.5626 1C11.7845 1.8625 12.5689 2.5 13.5001 2.5H15.2501H15.4657C15.3001 1.64688 14.5501 1 13.647 1H11.7501H11.5626Z" fill="black"/>
</g>
<defs>
<clipPath id="clip0_771_4228">
<rect width="16" height="16" fill="white" transform="translate(0.5)"/>
</clipPath>
</defs>
</svg>
