<svg width="170" height="34" viewBox="0 0 170 34" fill="none" xmlns="http://www.w3.org/2000/svg">
<path d="M96.0606 20.975C95.3707 21.1568 94.5659 21.3386 93.6532 21.5134C92.7405 21.6882 91.7919 21.856 90.8218 22.0168C89.8444 22.1776 88.8743 22.3314 87.9041 22.4712C86.9339 22.611 86.0572 22.7299 85.2667 22.8278C85.3098 23.7087 85.4104 24.4918 85.5757 25.1629C85.741 25.8341 86.0356 26.4004 86.4596 26.8549C86.8836 27.3093 87.4514 27.6519 88.1844 27.8827C88.9102 28.1134 89.8444 28.2322 90.9942 28.2322C92.1441 28.2322 93.107 28.1413 93.8975 27.9596C94.688 27.7778 95.342 27.575 95.8594 27.3513C96.3768 27.1276 96.7865 26.9178 97.0955 26.729C97.3973 26.5403 97.6416 26.4284 97.8213 26.4004C98.1519 26.3865 98.4249 26.4843 98.6334 26.6941C98.8418 26.9038 98.9424 27.1765 98.9424 27.5121C98.9424 27.9596 98.7627 28.386 98.4034 28.7846C98.0441 29.1831 97.5267 29.5396 96.8583 29.8473C96.19 30.1549 95.3779 30.3996 94.4221 30.5814C93.4664 30.7632 92.3884 30.8541 91.1883 30.8541C89.7941 30.8541 88.594 30.7492 87.6023 30.5394C86.6105 30.3297 85.7769 30.0151 85.1086 29.6026C84.4403 29.1901 83.9085 28.6867 83.5204 28.0994C83.1323 27.5121 82.8305 26.8339 82.6221 26.0718C82.4137 25.3098 82.2843 24.4638 82.2269 23.5339C82.1694 22.611 82.1478 21.6112 82.1406 20.5485C82.1406 18.8496 82.2484 17.3115 82.464 15.9201C82.6796 14.5288 83.1108 13.3473 83.7719 12.3754C84.4259 11.4036 85.3601 10.6485 86.5674 10.1102C87.7747 9.57882 89.3701 9.31314 91.3464 9.30615C92.6327 9.30615 93.8185 9.42501 94.9108 9.66272C96.0031 9.90043 96.9517 10.271 97.7638 10.7744C98.5759 11.2778 99.2155 11.928 99.6826 12.732C100.15 13.529 100.416 14.4939 100.473 15.6125C100.516 16.3956 100.473 17.0737 100.372 17.6331C100.265 18.1924 100.042 18.6818 99.7113 19.1083C99.3807 19.5278 98.9208 19.8843 98.3315 20.178C97.7422 20.4716 96.9949 20.7303 96.075 20.954L96.0606 20.975ZM92.1584 11.8231C91.0805 11.8231 90.1606 11.914 89.3989 12.0888C88.6371 12.2636 88.0047 12.5223 87.5088 12.8579C87.013 13.1934 86.6177 13.6059 86.3231 14.1023C86.0356 14.5917 85.8129 15.1581 85.6691 15.7943C85.5254 16.4305 85.4248 17.1437 85.3817 17.9197C85.3386 18.6958 85.2954 19.5348 85.2667 20.4367C85.8632 20.3528 86.5746 20.2479 87.3939 20.129C88.2203 20.0102 89.0683 19.8773 89.945 19.7375C90.8218 19.5977 91.6913 19.4509 92.5393 19.304C93.3945 19.1572 94.1491 19.0104 94.8174 18.8706C95.7588 18.6608 96.4415 18.3182 96.8727 17.8498C97.3039 17.3814 97.4835 16.6682 97.4117 15.7174C97.3829 15.0881 97.2176 14.5288 96.9158 14.0464C96.614 13.564 96.2187 13.1585 95.7301 12.8299C95.2486 12.5013 94.6952 12.2496 94.0772 12.0818C93.4592 11.914 92.8196 11.8301 92.1584 11.8301V11.8231Z" fill="black"/>
<path d="M150.36 20.975C149.671 21.1568 148.866 21.3386 147.953 21.5134C147.04 21.6882 146.092 21.856 145.122 22.0168C144.144 22.1776 143.174 22.3314 142.204 22.4712C141.234 22.611 140.357 22.7299 139.567 22.8278C139.61 23.7087 139.71 24.4918 139.876 25.1629C140.041 25.8341 140.335 26.4004 140.759 26.8549C141.183 27.3093 141.751 27.6519 142.484 27.8827C143.21 28.1134 144.144 28.2322 145.294 28.2322C146.444 28.2322 147.407 28.1413 148.197 27.9596C148.988 27.7778 149.642 27.575 150.159 27.3513C150.677 27.1276 151.086 26.9178 151.395 26.729C151.697 26.5403 151.941 26.4284 152.121 26.4004C152.452 26.3865 152.725 26.4843 152.933 26.6941C153.142 26.9038 153.242 27.1765 153.242 27.5121C153.242 27.9596 153.063 28.386 152.703 28.7846C152.344 29.1831 151.826 29.5396 151.158 29.8473C150.49 30.1549 149.678 30.3996 148.722 30.5814C147.766 30.7632 146.688 30.8541 145.488 30.8541C144.094 30.8541 142.894 30.7492 141.902 30.5394C140.91 30.3297 140.077 30.0151 139.408 29.6026C138.74 29.1901 138.208 28.6867 137.82 28.0994C137.432 27.5121 137.13 26.8339 136.922 26.0718C136.714 25.3098 136.584 24.4638 136.527 23.5339C136.469 22.611 136.448 21.6112 136.44 20.5485C136.44 18.8496 136.548 17.3115 136.764 15.9201C136.979 14.5288 137.411 13.3473 138.072 12.3754C138.726 11.4036 139.66 10.6485 140.867 10.1102C142.075 9.57882 143.67 9.31314 145.646 9.30615C146.933 9.30615 148.118 9.42501 149.211 9.66272C150.303 9.90043 151.252 10.271 152.064 10.7744C152.876 11.2778 153.515 11.928 153.982 12.732C154.449 13.529 154.715 14.4939 154.773 15.6125C154.816 16.3956 154.773 17.0737 154.672 17.6331C154.564 18.1924 154.342 18.6818 154.011 19.1083C153.681 19.5278 153.221 19.8843 152.631 20.178C152.042 20.4716 151.295 20.7303 150.375 20.954L150.36 20.975ZM146.458 11.8231C145.38 11.8231 144.46 11.914 143.699 12.0888C142.937 12.2636 142.305 12.5223 141.809 12.8579C141.313 13.1934 140.918 13.6059 140.623 14.1023C140.335 14.5917 140.113 15.1581 139.969 15.7943C139.825 16.4305 139.725 17.1437 139.681 17.9197C139.638 18.6958 139.595 19.5348 139.567 20.4367C140.163 20.3528 140.874 20.2479 141.694 20.129C142.52 20.0102 143.368 19.8773 144.245 19.7375C145.122 19.5977 145.991 19.4509 146.839 19.304C147.694 19.1572 148.449 19.0104 149.117 18.8706C150.059 18.6608 150.741 18.3182 151.173 17.8498C151.604 17.3814 151.783 16.6682 151.711 15.7174C151.683 15.0881 151.517 14.5288 151.216 14.0464C150.914 13.564 150.519 13.1585 150.03 12.8299C149.548 12.5013 148.995 12.2496 148.377 12.0818C147.759 11.914 147.119 11.8301 146.458 11.8301V11.8231Z" fill="black"/>
<path d="M105.085 4.12565C105.085 3.32162 105.782 2.61548 106.573 2.61548C107.414 2.61548 108.06 3.32162 108.06 4.12565V9.08964H113.702C114.492 9.08964 115.096 9.70489 115.096 10.5089C115.096 11.3129 114.492 11.9282 113.702 11.9282H108.06V24.9674C108.06 27.0019 109.181 28.0856 110.762 28.0856C111.553 28.0856 112.207 28.7009 112.207 29.5049C112.207 30.3089 111.553 30.9242 110.762 30.9242C107.083 30.9242 105.078 28.4212 105.078 24.9674V11.9282H103.26C102.469 11.9282 101.866 11.3129 101.866 10.5089C101.866 9.70489 102.469 9.08964 103.26 9.08964H105.078V4.12565H105.085Z" fill="black"/>
<path d="M118.906 9.08268H131.669C132.459 9.08268 133.063 9.69793 133.063 10.502C133.063 10.9284 132.876 11.257 132.74 11.4458L121.141 27.6033H131.899C132.689 27.6033 133.343 28.2674 133.343 29.0715C133.343 29.8755 132.689 30.5327 131.899 30.5327H118.252C117.461 30.5327 116.851 29.9174 116.851 29.1134C116.851 28.6869 116.987 28.4073 117.174 28.1696L128.909 11.9142H118.899C118.108 11.9142 117.505 11.299 117.505 10.495C117.505 9.69094 118.108 9.07568 118.899 9.07568L118.906 9.08268Z" fill="black"/>
<path d="M162.081 12.2988C163.015 10.1244 165.343 8.51636 168.556 8.51636C169.346 8.51636 170 9.18055 170 9.98458C170 10.7886 169.346 11.4458 168.556 11.4458C164.272 11.4458 162.081 14.4731 162.081 18.8149V29.4001C162.081 30.253 161.427 30.9102 160.593 30.9102C159.759 30.9102 159.105 30.246 159.105 29.4001V10.2153C159.105 9.36233 159.759 8.70513 160.593 8.70513C161.427 8.70513 162.081 9.36932 162.081 10.2153V12.2918V12.2988Z" fill="black"/>
<path d="M70.5981 8.32764C67.0121 8.32764 64.964 9.79586 63.7998 11.6346L63.2752 12.949L62.7505 11.6346C61.5864 9.78887 59.5382 8.32764 55.9522 8.32764C48.7802 8.32764 47.1489 12.6764 47.1489 16.6895V29.3092C47.1489 30.1622 47.8029 30.8194 48.6365 30.8194C49.4701 30.8194 50.1241 30.1552 50.1241 29.3092V17.3048C50.1241 13.5713 51.4248 11.0194 55.945 11.0194C59.9479 11.0194 61.766 13.1937 61.766 16.6895V29.3092C61.766 30.1622 62.42 30.8194 63.2536 30.8194C63.2536 30.8194 63.2608 30.8194 63.268 30.8194C63.268 30.8194 63.2752 30.8194 63.2823 30.8194C64.1231 30.8194 64.7699 30.1552 64.7699 29.3092V16.6895C64.7699 13.1937 66.5881 11.0194 70.5909 11.0194C75.1111 11.0194 76.4119 13.5713 76.4119 17.3048V29.3092C76.4119 30.1622 77.0658 30.8194 77.8994 30.8194C78.7331 30.8194 79.387 30.1552 79.387 29.3092V16.6895C79.387 12.6764 77.7557 8.32764 70.5837 8.32764H70.5981Z" fill="black"/>
<path d="M27.8903 14.3326C28.6161 12.9623 29.0186 11.4242 29.0186 9.83709C29.0186 4.41166 24.484 0 18.9074 0C13.3307 0 8.79612 4.41166 8.79612 9.83709C8.79612 11.4242 9.19856 12.9553 9.92439 14.3326C4.43399 14.4305 0 18.8002 0 24.1627C0 29.5252 4.5346 33.9998 10.1112 33.9998C13.8769 33.9998 17.1683 31.9863 18.9074 29.0009C20.6465 31.9793 23.9378 33.9998 27.7035 33.9998C33.2801 33.9998 37.8147 29.5882 37.8147 24.1627C37.8147 18.7373 33.3807 14.4305 27.8903 14.3326ZM10.1112 31.0005C6.23777 31.0005 3.08296 27.9312 3.08296 24.1627C3.08296 20.3943 6.23777 17.325 10.1112 17.325C13.9847 17.325 17.1395 20.3943 17.1395 24.1627C17.1395 27.9312 13.9847 31.0005 10.1112 31.0005ZM18.9074 19.3246C18.3181 18.3108 17.5419 17.4159 16.6365 16.6678C16.0328 16.1574 15.5226 15.8428 15.3214 15.724C13.1942 14.4934 11.8719 12.2422 11.8719 9.83709C11.8719 6.06865 15.0267 2.99937 18.9002 2.99937C22.7736 2.99937 25.9284 6.06865 25.9284 9.83709C25.9284 12.2422 24.6062 14.4934 22.479 15.724C22.285 15.8428 21.7747 16.1574 21.1639 16.6608C20.2584 17.4089 19.4895 18.3108 18.893 19.3176L18.9074 19.3246ZM27.7035 31.0005C23.83 31.0005 20.6752 27.9312 20.6752 24.1627C20.6752 20.3943 23.83 17.325 27.7035 17.325C31.5769 17.325 34.7318 20.3943 34.7318 24.1627C34.7318 27.9312 31.5769 31.0005 27.7035 31.0005Z" fill="#00AEEF"/>
<path d="M22.4008 28.6723C21.3372 27.4697 20.6832 25.8687 20.6832 24.1627C20.6832 22.4568 21.3372 20.8627 22.4008 19.6672V15.8079C21.9768 16.0665 21.56 16.3462 21.1791 16.6678C20.7335 17.0314 20.3239 17.4369 19.9502 17.8704C19.9287 17.8913 19.9071 17.9193 19.8856 17.9403C19.7275 18.1291 19.5765 18.3178 19.4328 18.5136C19.4041 18.5485 19.3753 18.5905 19.3538 18.6254C19.1957 18.8492 19.0447 19.0799 18.9082 19.3176C19.7418 20.7509 20.2233 22.4009 20.2233 24.1558C20.2233 25.9106 19.7418 27.5676 18.9082 28.9939C19.749 30.4341 20.9563 31.6437 22.3936 32.5176V28.6653L22.4008 28.6723Z" fill="url(#paint0_linear_680_2096)"/>
<path d="M13.9997 29.8541C12.8858 30.5743 11.5563 30.9937 10.119 30.9937C6.24559 30.9937 3.09077 27.9245 3.09077 24.156C3.09077 20.3876 6.24559 17.3183 10.119 17.3183C10.8377 17.3183 11.5276 17.4232 12.1815 17.6189C12.8283 17.7937 13.5469 18.1922 13.5469 18.1922C10.7227 16.2556 9.92501 14.3259 9.92501 14.3259C9.37166 14.3259 8.74645 14.4098 8.74645 14.4098C3.82378 15.067 0.0078125 19.185 0.0078125 24.163C0.0078125 29.5884 4.54242 34.0001 10.119 34.0001C11.851 34.0001 13.4823 33.5666 14.9124 32.8185L13.9997 29.8611V29.8541Z" fill="url(#paint1_linear_680_2096)"/>
<path d="M29.0687 14.4167C29.0687 14.4167 28.4507 14.3328 27.8902 14.3328C27.8902 14.3328 27.0997 16.2694 24.2682 18.1991C24.2682 18.1991 24.9869 17.8006 25.6337 17.6258C26.2876 17.43 26.9775 17.3251 27.6961 17.3251C31.5696 17.3251 34.7244 20.3944 34.7244 24.1629C34.7244 27.9313 31.5696 31.0006 27.6961 31.0006C26.2661 31.0006 24.9294 30.5811 23.8155 29.861L22.9028 32.8184C24.3329 33.5735 25.9642 33.9999 27.6961 33.9999C33.2728 33.9999 37.8074 29.5883 37.8074 24.1629C37.8074 19.1919 33.9914 15.0669 29.0616 14.4237L29.0687 14.4167Z" fill="url(#paint2_linear_680_2096)"/>
<path style="mix-blend-mode:multiply" d="M24.2762 18.1991C24.2762 18.1991 24.9949 17.8006 25.6416 17.6258C25.6416 17.6258 28.085 16.3254 29.0695 14.4167C29.0695 14.4167 28.4515 14.3328 27.891 14.3328C27.891 14.3328 27.1005 16.2694 24.269 18.1991H24.2762Z" fill="url(#paint3_linear_680_2096)"/>
<path style="mix-blend-mode:multiply" d="M13.5458 18.1991C13.5458 18.1991 12.8271 17.8006 12.1803 17.6258C12.1803 17.6258 9.73697 16.3254 8.75244 14.4167C8.75244 14.4167 9.37047 14.3328 9.93101 14.3328C9.93101 14.3328 10.7215 16.2694 13.5529 18.1991H13.5458Z" fill="url(#paint4_linear_680_2096)"/>
<defs>
<linearGradient id="paint0_linear_680_2096" x1="18.9082" y1="24.1627" x2="22.4008" y2="24.1627" gradientUnits="userSpaceOnUse">
<stop offset="0.22" stop-color="#0084CB"/>
<stop offset="0.24" stop-color="#0086CC"/>
<stop offset="0.51" stop-color="#009CDC"/>
<stop offset="0.77" stop-color="#00A9E5"/>
<stop offset="1" stop-color="#00AEE9"/>
</linearGradient>
<linearGradient id="paint1_linear_680_2096" x1="0.654586" y1="24.163" x2="10.6365" y2="24.163" gradientUnits="userSpaceOnUse">
<stop stop-color="#00B060"/>
<stop offset="0.21" stop-color="#00AF81"/>
<stop offset="0.75" stop-color="#00AECF"/>
<stop offset="1" stop-color="#00AEEF"/>
</linearGradient>
<linearGradient id="paint2_linear_680_2096" x1="23.5568" y1="24.1629" x2="33.5387" y2="24.1629" gradientUnits="userSpaceOnUse">
<stop stop-color="#00AEEF"/>
<stop offset="0.13" stop-color="#00AEE6"/>
<stop offset="0.34" stop-color="#00AECD"/>
<stop offset="0.61" stop-color="#00AFA6"/>
<stop offset="0.92" stop-color="#00AF6F"/>
<stop offset="1" stop-color="#00B060"/>
</linearGradient>
<linearGradient id="paint3_linear_680_2096" x1="24.2762" y1="16.2624" x2="29.0695" y2="16.2624" gradientUnits="userSpaceOnUse">
<stop offset="0.2" stop-color="#003D58"/>
<stop offset="1" stop-color="white" stop-opacity="0"/>
</linearGradient>
<linearGradient id="paint4_linear_680_2096" x1="8.74526" y1="16.2694" x2="13.5386" y2="16.2694" gradientUnits="userSpaceOnUse">
<stop stop-color="white" stop-opacity="0"/>
<stop offset="0.8" stop-color="#002A41"/>
</linearGradient>
</defs>
</svg>
