<svg width="20" height="16" viewBox="0 0 20 16" fill="none" xmlns="http://www.w3.org/2000/svg">
<g clip-path="url(#clip0_771_4232)">
<path d="M4 3C2.78437 3 1.85 2.44062 1.3 2C1.85 1.55938 2.78437 1 4 1C5.21562 1 6.15 1.55938 6.7 2C6.15 2.44062 5.21562 3 4 3ZM4 0C1.85 0 0.440625 1.38125 0.0875 1.76875C0.028125 1.83125 0 1.9125 0 2C0 2.0875 0.028125 2.16875 0.0875 2.23125C0.34375 2.50938 1.15 3.30938 2.39375 3.73125C0.95625 4.6125 0 6.19375 0 8V8.5C0 8.775 0.225 9 0.5 9H1.5C4.2625 9 6.5 6.7625 6.5 4V3.575L10.325 1.7375C11.3375 1.25312 12.4469 1 13.5719 1H19.5C19.775 1 20 0.775 20 0.5C20 0.225 19.775 0 19.5 0H13.5719C12.3 0 11.0406 0.2875 9.89375 0.8375L7.925 1.78125C7.92188 1.775 7.91563 1.77187 7.9125 1.76875C7.55937 1.38125 6.15 0 4 0ZM5.49062 4C5.49375 4 5.49687 4 5.5 4C5.5 6.20937 3.70937 8 1.5 8H1C1 5.79063 2.79063 4 5 4H5.49062ZM12.8813 13.6438C12.2094 14.5375 11.3562 15 10.5 15C9.64375 15 8.79062 14.5375 8.11875 13.6438C7.44687 12.75 7 11.4625 7 10C7 8.5375 7.44687 7.25312 8.11875 6.35625C8.79062 5.4625 9.64375 5 10.5 5C11.3562 5 12.2094 5.4625 12.8813 6.35625C13.5531 7.25312 14 8.5375 14 10C14 11.4625 13.5531 12.7469 12.8813 13.6438ZM10.5 16C12.9844 16 15 13.3125 15 10C15 6.6875 12.9844 4 10.5 4C8.01562 4 6 6.6875 6 10C6 13.3125 8.01562 16 10.5 16ZM14.5531 14.7437C16.2063 15.2594 17.85 15.0062 18.9156 13.9C20.6719 12.0781 20.1969 8.63125 17.8563 6.2C16.5156 4.80937 14.8531 4.05313 13.35 4.00313C13.775 4.32812 14.1531 4.71875 14.4812 5.15625C14.4969 5.17812 14.5125 5.2 14.5281 5.21875C15.4125 5.5 16.3312 6.05625 17.1344 6.89062C18.1687 7.96562 18.7719 9.24375 18.9312 10.4094C19.0938 11.5813 18.8094 12.5625 18.1938 13.2C17.5844 13.8313 16.6656 14.1125 15.5688 13.95C15.4125 13.9281 15.2531 13.8937 15.0938 13.8531C14.9312 14.1656 14.75 14.4625 14.55 14.7375L14.5531 14.7437Z" fill="black"/>
</g>
<defs>
<clipPath id="clip0_771_4232">
<rect width="20" height="16" fill="white"/>
</clipPath>
</defs>
</svg>
