<svg width="27" height="24" viewBox="0 0 27 24" fill="none" xmlns="http://www.w3.org/2000/svg">
<g clip-path="url(#clip0_935_2543)">
<path d="M12.375 0.75C11.7516 0.75 11.25 1.25156 11.25 1.875V9H10.5V1.875C10.5 0.839062 11.3391 0 12.375 0H13.5H25.125C26.1609 0 27 0.839062 27 1.875V18.375V23.625C27 23.8312 26.8312 24 26.625 24C26.4188 24 26.25 23.8312 26.25 23.625V20.2125C25.7719 20.7 25.1109 21 24.375 21C23.6391 21 22.9781 20.7 22.5 20.2125C22.0219 20.7 21.3609 21 20.625 21C19.8891 21 19.2281 20.7 18.75 20.2125C18.2719 20.7 17.6109 21 16.875 21C15.4266 21 14.25 19.8234 14.25 18.375V18.0469C14.25 17.7328 14.2922 17.4234 14.3812 17.1188L15.7406 12.3656L13.2 0.75H12.375ZM13.9641 0.75L16.4906 12.2953C16.5047 12.3562 16.5 12.4172 16.4859 12.4781L15.1031 17.325C15.0375 17.5594 15 17.8031 15 18.0469V18.375C15 19.4109 15.8391 20.25 16.875 20.25C17.5266 20.25 18.1031 19.9172 18.4359 19.4109C18.5062 19.3078 18.6234 19.2422 18.75 19.2422C18.8766 19.2422 18.9938 19.3031 19.0641 19.4109C19.4016 19.9172 19.9734 20.25 20.625 20.25C21.2766 20.25 21.8531 19.9172 22.1859 19.4109C22.2562 19.3078 22.3734 19.2422 22.5 19.2422C22.6266 19.2422 22.7438 19.3031 22.8141 19.4109C23.1516 19.9172 23.7234 20.25 24.375 20.25C25.4109 20.25 26.25 19.4109 26.25 18.375V1.875C26.25 1.25156 25.7484 0.75 25.125 0.75H13.9641ZM11.25 15V23.625C11.25 23.8312 11.0813 24 10.875 24C10.6687 24 10.5 23.8312 10.5 23.625V15H11.25ZM4.65 16.4484C4.55156 16.3172 4.5 16.1625 4.5 15.9984V12.6188C4.5 12.3141 4.68281 12.0422 4.96406 11.925C5.24531 11.8078 5.56875 11.8734 5.77969 12.0891L6 12.3094C6.28125 12.5906 6.66094 12.75 7.05938 12.75H10.5C10.9125 12.75 11.25 12.4125 11.25 12C11.25 11.5875 10.9125 11.25 10.5 11.25H7.37344C7.17656 11.25 6.98438 11.1703 6.84375 11.0297L4.89375 9.07969C4.35938 8.55 3.6375 8.25 2.8875 8.25C1.70625 8.25 0.75 9.20625 0.75 10.3875V12.9984V13.0406V13.0453V22.5C0.75 22.9125 1.0875 23.25 1.5 23.25C1.9125 23.25 2.25 22.9125 2.25 22.5V18C2.25 17.6766 2.45625 17.3906 2.76094 17.2875C3.06563 17.1844 3.40313 17.2922 3.6 17.55L5.1 19.5516C5.19844 19.6828 5.25 19.8375 5.25 20.0016V22.5C5.25 22.9125 5.5875 23.25 6 23.25C6.4125 23.25 6.75 22.9125 6.75 22.5V19.7484C6.75 19.425 6.64688 19.1063 6.45 18.8484L4.65 16.4484ZM0 12.9984V10.3875C0 8.79375 1.29375 7.5 2.8875 7.5C3.83906 7.5 4.74844 7.87969 5.41875 8.55L7.37344 10.5H10.5C11.3297 10.5 12 11.1703 12 12C12 12.8297 11.3297 13.5 10.5 13.5H7.05938C6.68438 13.5 6.32344 13.4062 6 13.2328C5.80781 13.1297 5.62969 12.9984 5.47031 12.8391L5.25 12.6188V13.0594V13.6406V15.9984L7.05 18.3984C7.34062 18.7875 7.5 19.2609 7.5 19.7484V22.5C7.5 23.3297 6.82969 24 6 24C5.17031 24 4.5 23.3297 4.5 22.5V20.0016L3.75 18.9984L3 18V19.2516V22.5C3 23.3297 2.32969 24 1.5 24C0.670312 24 0 23.3297 0 22.5V13.0453V13.0031V12.9984ZM3 5.25C3.39782 5.25 3.77936 5.09196 4.06066 4.81066C4.34196 4.52936 4.5 4.14782 4.5 3.75C4.5 3.35218 4.34196 2.97064 4.06066 2.68934C3.77936 2.40804 3.39782 2.25 3 2.25C2.60218 2.25 2.22064 2.40804 1.93934 2.68934C1.65804 2.97064 1.5 3.35218 1.5 3.75C1.5 4.14782 1.65804 4.52936 1.93934 4.81066C2.22064 5.09196 2.60218 5.25 3 5.25ZM0.75 3.75C0.75 3.45453 0.808198 3.16194 0.921271 2.88896C1.03434 2.61598 1.20008 2.36794 1.40901 2.15901C1.61794 1.95008 1.86598 1.78434 2.13896 1.67127C2.41194 1.5582 2.70453 1.5 3 1.5C3.29547 1.5 3.58806 1.5582 3.86104 1.67127C4.13402 1.78434 4.38206 1.95008 4.59099 2.15901C4.79992 2.36794 4.96566 2.61598 5.07873 2.88896C5.1918 3.16194 5.25 3.45453 5.25 3.75C5.25 4.04547 5.1918 4.33806 5.07873 4.61104C4.96566 4.88402 4.79992 5.13206 4.59099 5.34099C4.38206 5.54992 4.13402 5.71566 3.86104 5.82873C3.58806 5.9418 3.29547 6 3 6C2.70453 6 2.41194 5.9418 2.13896 5.82873C1.86598 5.71566 1.61794 5.54992 1.40901 5.34099C1.20008 5.13206 1.03434 4.88402 0.921271 4.61104C0.808198 4.33806 0.75 4.04547 0.75 3.75Z" fill="black"/>
</g>
<defs>
<clipPath id="clip0_935_2543">
<rect width="27" height="24" fill="white"/>
</clipPath>
</defs>
</svg>
