<svg width="34" height="28" viewBox="0 0 34 28" fill="none" xmlns="http://www.w3.org/2000/svg">
<g clip-path="url(#clip0_759_4169)">
<path d="M32.6463 8.68221L28.9289 9.98888V0.995261C28.9289 0.445877 28.483 0 27.9337 0H21.9621C21.4118 0 20.9668 0.445877 20.9668 0.995261V12.788L16.9858 14.1876V9.62085C16.9858 8.91842 16.2763 8.43627 15.6225 8.69637L13.0047 9.7394V0.995261C13.0047 0.445877 12.5589 0 12.0095 0H6.03792C5.48765 0 5.04265 0.445877 5.04265 0.995261V12.9092L0.627235 14.6679C0.248594 14.8192 0 15.1855 0 15.5924V27.0047C0 27.5541 0.444992 28 0.995261 28H32.9763C33.5257 28 33.9716 27.5541 33.9716 27.0047V9.62085C33.9716 8.937 33.2957 8.45397 32.6463 8.68221ZM26.9384 1.99052V3.98104H22.9573V1.99052H26.9384ZM22.9573 5.97156H26.9384V10.6887L22.9573 12.0882V5.97156ZM11.0142 1.99052V3.98104H7.03318V1.99052H11.0142ZM7.03318 5.97156H11.0142V10.5312L7.03318 12.1165V5.97156ZM10.019 26.0095H8.02844V24.019H10.019V26.0095ZM17.981 26.0095H15.9905V24.019H17.981V26.0095ZM25.9431 26.0095H23.9526V24.019H25.9431V26.0095ZM31.981 26.0095H27.9337V23.0237C27.9337 22.4743 27.4878 22.0284 26.9384 22.0284H22.9573C22.4071 22.0284 21.9621 22.4743 21.9621 23.0237V26.0095H19.9716V23.0237C19.9716 22.4743 19.5266 22.0284 18.9763 22.0284H14.9953C14.445 22.0284 14 22.4743 14 23.0237V26.0095H12.0095V23.0237C12.0095 22.4743 11.5636 22.0284 11.0142 22.0284H7.03318C6.48379 22.0284 6.03792 22.4743 6.03792 23.0237V26.0095H1.99052V16.2674L14.9953 11.0885V15.5924C14.9953 16.2763 15.6712 16.7593 16.3205 16.5311L31.981 11.0257V26.0095Z" fill="url(#paint0_linear_759_4169)"/>
</g>
<defs>
<linearGradient id="paint0_linear_759_4169" x1="-1.68667e-07" y1="27.9364" x2="38.4605" y2="25.9567" gradientUnits="userSpaceOnUse">
<stop stop-color="#00AEEF"/>
<stop offset="0.511623" stop-color="#00AECD"/>
<stop offset="1" stop-color="#00AF89"/>
</linearGradient>
<clipPath id="clip0_759_4169">
<rect width="33.9716" height="28" fill="white"/>
</clipPath>
</defs>
</svg>
