<svg width="20" height="20" viewBox="0 0 20 20" fill="none" xmlns="http://www.w3.org/2000/svg">
<path d="M19.375 6.1987C19.375 5.43841 19.073 4.70926 18.5354 4.17166C17.9978 3.63405 17.2686 3.33203 16.5083 3.33203H3.49167C3.11521 3.33203 2.74244 3.40618 2.39464 3.55024C2.04684 3.69431 1.73082 3.90546 1.46463 4.17166C0.927023 4.70926 0.625 5.43841 0.625 6.1987V13.7987C0.625 14.559 0.927023 15.2881 1.46463 15.8257C1.73082 16.0919 2.04684 16.3031 2.39464 16.4472C2.74244 16.5912 3.11521 16.6654 3.49167 16.6654H16.5083C17.2686 16.6654 17.9978 16.3633 18.5354 15.8257C19.073 15.2881 19.375 14.559 19.375 13.7987V6.1987ZM7.91667 13.282V6.06536L13.5583 9.6737L7.91667 13.282Z" fill="white"/>
</svg>
