<svg width="20" height="20" viewBox="0 0 20 20" fill="none" xmlns="http://www.w3.org/2000/svg">
<path d="M14.5 0.667969H5.5C4.30653 0.667969 3.16193 1.14207 2.31802 1.98599C1.47411 2.8299 1 3.97449 1 5.16797V14.168C1 15.3614 1.47411 16.506 2.31802 17.3499C3.16193 18.1939 4.30653 18.668 5.5 18.668H14.5C15.6935 18.668 16.8381 18.1939 17.682 17.3499C18.5259 16.506 19 15.3614 19 14.168V5.16797C19 3.97449 18.5259 2.8299 17.682 1.98599C16.8381 1.14207 15.6935 0.667969 14.5 0.667969Z" fill="white"/>
<path d="M10 14.0547C10.5171 14.0547 11.0291 13.9528 11.5068 13.755C11.9845 13.5571 12.4186 13.2671 12.7842 12.9014C13.1499 12.5358 13.4399 12.1017 13.6378 11.624C13.8357 11.1463 13.9375 10.6343 13.9375 10.1172C13.9375 9.60011 13.8357 9.08809 13.6378 8.61037C13.4399 8.13265 13.1499 7.69859 12.7842 7.33295C12.4186 6.96732 11.9845 6.67729 11.5068 6.47941C11.0291 6.28153 10.5171 6.17969 10 6.17969C8.95571 6.17969 7.95419 6.59453 7.21577 7.33295C6.47734 8.07138 6.0625 9.0729 6.0625 10.1172C6.0625 11.1615 6.47734 12.163 7.21577 12.9014C7.95419 13.6398 8.95571 14.0547 10 14.0547Z" stroke="#1C2B39" stroke-width="2.025" stroke-linecap="round" stroke-linejoin="round"/>
<path d="M15.2188 5.19531C15.1442 5.19531 15.0726 5.16568 15.0199 5.11294C14.9671 5.06019 14.9375 4.98865 14.9375 4.91406C14.9375 4.83947 14.9671 4.76793 15.0199 4.71519C15.0726 4.66244 15.1442 4.63281 15.2188 4.63281" stroke="#1C2B39" stroke-width="2.025"/>
<path d="M15.2109 5.19531C15.2855 5.19531 15.3571 5.16568 15.4098 5.11294C15.4626 5.06019 15.4922 4.98865 15.4922 4.91406C15.4922 4.83947 15.4626 4.76793 15.4098 4.71519C15.3571 4.66244 15.2855 4.63281 15.2109 4.63281" stroke="#1C2B39" stroke-width="2.025"/>
</svg>
