<svg width="30" height="30" viewBox="0 0 30 30" fill="none" xmlns="http://www.w3.org/2000/svg">
<mask id="mask0_1684_892" style="mask-type:luminance" maskUnits="userSpaceOnUse" x="2" y="2" width="26" height="26">
<path d="M2.3584 2.36138H27.6362V27.6392H2.3584V2.36138Z" fill="white"/>
</mask>
<g mask="url(#mask0_1684_892)">
<path d="M10.71 10.6772C10.71 12.306 9.38957 13.6265 7.76073 13.6265C6.13194 13.6265 4.81152 12.306 4.81152 10.6772C4.81152 9.04837 7.76073 5.20808 7.76073 5.20808C7.76073 5.20808 10.71 9.04837 10.71 10.6772Z" stroke="white" stroke-width="0.722222" stroke-miterlimit="10"/>
<path d="M25.191 7.55319C25.191 8.73788 24.2307 9.69824 23.046 9.69824C21.8613 9.69824 20.9009 8.73788 20.9009 7.55319C20.9009 6.36849 23.046 3.57529 23.046 3.57529C23.046 3.57529 25.191 6.36849 25.191 7.55319Z" stroke="white" stroke-width="0.722222" stroke-miterlimit="10"/>
<path d="M22.0001 21.0791C22.0001 24.2928 19.3949 26.8979 16.1812 26.8979C12.9675 26.8979 10.3623 24.2928 10.3623 21.0791C10.3623 17.8654 16.1812 10.2883 16.1812 10.2883C16.1812 10.2883 22.0001 17.8654 22.0001 21.0791Z" stroke="white" stroke-width="0.722222" stroke-miterlimit="10"/>
</g>
</svg>
