<svg width="12" height="16" viewBox="0 0 12 16" fill="none" xmlns="http://www.w3.org/2000/svg">
<path d="M10.1406 12.8469C10.3344 13.0406 10.6531 13.0406 10.8469 12.8469C11.0406 12.6531 11.0406 12.3344 10.8469 12.1406L6.70625 8L10.8469 3.85937C11.0406 3.66562 11.0406 3.34687 10.8469 3.15312C10.6531 2.95937 10.3344 2.95937 10.1406 3.15312L6 7.29375L1.8625 3.15312C1.66875 2.95937 1.35 2.95937 1.15625 3.15312C0.9625 3.34687 0.9625 3.66562 1.15625 3.85937L5.29375 8L1.15312 12.1406C0.959375 12.3344 0.959375 12.6531 1.15312 12.8469C1.34687 13.0406 1.66562 13.0406 1.85937 12.8469L6 8.70625L10.1406 12.8469Z" fill="black"/>
</svg>
